<svg width="24" height="19" viewBox="0 0 24 19" fill="none" xmlns="http://www.w3.org/2000/svg">
<path d="M10.9688 0.761719C11.9297 0.761719 12.9102 0.851563 13.9102 1.03125C14.9102 1.20313 15.8828 1.46875 16.8281 1.82812C17.7734 2.1875 18.6641 2.64062 19.5 3.1875C20.3359 3.72656 21.0664 4.35938 21.6914 5.08594C22.3164 5.8125 22.8086 6.63281 23.168 7.54688C23.5352 8.46094 23.7188 9.47266 23.7188 10.582C23.7188 11.6914 23.5234 12.7188 23.1328 13.6641C22.7422 14.6094 22.1953 15.4258 21.4922 16.1133C20.7891 16.8008 19.9492 17.3398 18.9727 17.7305C17.9961 18.1211 16.9219 18.3164 15.75 18.3164C15.1953 18.3164 14.6211 18.2734 14.0273 18.1875C13.4336 18.1094 12.8398 17.9844 12.2461 17.8125C11.6523 17.6406 11.0664 17.4297 10.4883 17.1797C9.91797 16.9219 9.37109 16.6172 8.84766 16.2656C8.23047 16.875 7.51562 17.3516 6.70312 17.6953C5.89844 18.0312 5.04688 18.1992 4.14844 18.1992C3.66406 18.1992 3.21094 18.1445 2.78906 18.0352C2.36719 17.9258 2 17.7695 1.6875 17.5664C1.38281 17.3633 1.14062 17.1172 0.960938 16.8281C0.789062 16.5391 0.703125 16.2188 0.703125 15.8672C0.703125 15.5625 0.777344 15.2773 0.925781 15.0117C1.08203 14.7461 1.29688 14.5117 1.57031 14.3086C1.85156 14.1055 2.18359 13.9453 2.56641 13.8281C2.95703 13.7109 3.38281 13.6523 3.84375 13.6523C5.20312 13.6523 6.8125 14.1523 8.67188 15.1523C9.01562 14.7227 9.29688 14.2383 9.51562 13.6992C9.75781 13.0977 9.94531 12.4805 10.0781 11.8477C10.2188 11.207 10.3398 10.5703 10.4414 9.9375C10.5508 9.30469 10.6602 8.6875 10.7695 8.08594C10.8867 7.48438 11.043 6.91797 11.2383 6.38672C11.4414 5.85547 11.7031 5.37109 12.0234 4.93359C12.3516 4.48828 12.7773 4.10938 13.3008 3.79688C13.3789 3.75781 13.4492 3.73828 13.5117 3.73828C13.6211 3.73828 13.7227 3.77734 13.8164 3.85547C13.918 3.93359 13.9688 4.04297 13.9688 4.18359C13.9688 4.34766 13.8945 4.47266 13.7461 4.55859C13.332 4.80078 12.9922 5.10547 12.7266 5.47266C12.4688 5.83203 12.2539 6.23828 12.082 6.69141C11.9102 7.14453 11.7734 7.63281 11.6719 8.15625C11.5703 8.67969 11.4727 9.22656 11.3789 9.79688C11.3008 10.2656 11.2148 10.7578 11.1211 11.2734C11.0273 11.7812 10.9102 12.2891 10.7695 12.7969C10.6289 13.2969 10.4492 13.7891 10.2305 14.2734C10.0195 14.75 9.75781 15.1914 9.44531 15.5977C9.46094 15.6055 9.46875 15.6133 9.46875 15.6211C9.47656 15.6211 9.48828 15.625 9.50391 15.6328C10.4961 16.2266 11.5273 16.6758 12.5977 16.9805C13.668 17.2852 14.7148 17.4375 15.7383 17.4375C16.8477 17.4375 17.8398 17.2539 18.7148 16.8867C19.5977 16.5195 20.3438 16.0273 20.9531 15.4102C21.5625 14.7852 22.0273 14.0586 22.3477 13.2305C22.668 12.4023 22.8281 11.5273 22.8281 10.6055C22.8281 9.66797 22.6719 8.79688 22.3594 7.99219C22.0469 7.17969 21.6172 6.44141 21.0703 5.77734C20.5312 5.11328 19.8867 4.52344 19.1367 4.00781C18.3945 3.49219 17.5898 3.0625 16.7227 2.71875C15.8633 2.36719 14.957 2.10156 14.0039 1.92188C13.0586 1.73438 12.1094 1.64062 11.1562 1.64062C9.875 1.64062 8.70312 1.75 7.64062 1.96875C6.58594 2.17969 5.67578 2.49219 4.91016 2.90625C4.15234 3.32031 3.5625 3.82813 3.14062 4.42969C2.71875 5.03125 2.50781 5.71484 2.50781 6.48047C2.50781 6.91797 2.57031 7.30469 2.69531 7.64062C2.82812 7.97656 2.99219 8.26953 3.1875 8.51953C3.39062 8.76172 3.60938 8.96875 3.84375 9.14062C4.07812 9.3125 4.29688 9.45312 4.5 9.5625C4.70312 9.66406 4.875 9.73828 5.01562 9.78516C5.16406 9.83203 5.25 9.85938 5.27344 9.86719C5.375 9.89062 5.45312 9.94531 5.50781 10.0312C5.57031 10.1094 5.60156 10.1992 5.60156 10.3008C5.60156 10.4336 5.55469 10.5352 5.46094 10.6055C5.36719 10.6758 5.26562 10.7109 5.15625 10.7109C5 10.7109 4.80469 10.6758 4.57031 10.6055C4.33594 10.5273 4.08594 10.4141 3.82031 10.2656C3.5625 10.1094 3.30078 9.91797 3.03516 9.69141C2.77734 9.45703 2.54297 9.18359 2.33203 8.87109C2.12109 8.55859 1.94922 8.20312 1.81641 7.80469C1.69141 7.40625 1.62891 6.96484 1.62891 6.48047C1.62891 5.59766 1.85156 4.80469 2.29688 4.10156C2.75 3.39062 3.38672 2.78906 4.20703 2.29688C5.02734 1.80469 6.00781 1.42578 7.14844 1.16016C8.29688 0.894531 9.57031 0.761719 10.9688 0.761719ZM8.03906 15.8203C7.22656 15.3906 6.47266 15.0664 5.77734 14.8477C5.08203 14.6289 4.44531 14.5195 3.86719 14.5195C3.53906 14.5195 3.23438 14.5586 2.95312 14.6367C2.67969 14.707 2.44141 14.8047 2.23828 14.9297C2.03516 15.0547 1.875 15.1992 1.75781 15.3633C1.64062 15.5273 1.58203 15.6992 1.58203 15.8789C1.58203 16.0508 1.63281 16.2227 1.73438 16.3945C1.84375 16.5664 2.00391 16.7188 2.21484 16.8516C2.43359 16.9844 2.70312 17.0938 3.02344 17.1797C3.34375 17.2656 3.71875 17.3086 4.14844 17.3086C4.88281 17.3086 5.58203 17.1797 6.24609 16.9219C6.91797 16.6562 7.51562 16.2891 8.03906 15.8203Z" fill="black"/>
</svg>
