<svg width="63" height="31" viewBox="0 0 63 31" fill="none" xmlns="http://www.w3.org/2000/svg">
<path d="M1.85156 16.7109C2.01562 16.9375 2.22656 17.1211 2.48438 17.2617C2.74219 17.3945 3.05859 17.4609 3.43359 17.4609C3.81641 17.4609 4.16406 17.3711 4.47656 17.1914C4.78906 17.0039 5.07422 16.7617 5.33203 16.4648C5.58984 16.168 5.82031 15.8359 6.02344 15.4688C6.22656 15.1016 6.41016 14.7344 6.57422 14.3672C6.61328 14.2812 6.66797 14.2188 6.73828 14.1797C6.80859 14.1328 6.88672 14.1094 6.97266 14.1094C7.10547 14.1094 7.21094 14.1562 7.28906 14.25C7.375 14.3438 7.41797 14.4453 7.41797 14.5547C7.41797 14.5938 7.41406 14.6289 7.40625 14.6602C7.39844 14.6836 7.38672 14.7109 7.37109 14.7422C6.83203 15.9297 6.24219 16.8242 5.60156 17.4258C4.96875 18.0273 4.25 18.3359 3.44531 18.3516C2.92969 18.3516 2.48438 18.25 2.10938 18.0469C1.73438 17.8516 1.42578 17.5977 1.18359 17.2852C0.941406 16.9648 0.761719 16.6055 0.644531 16.207C0.527344 15.8086 0.46875 15.4102 0.46875 15.0117C0.46875 14.6133 0.515625 14.2461 0.609375 13.9102C0.710938 13.5742 0.851562 13.2812 1.03125 13.0312C1.21875 12.7812 1.4375 12.5859 1.6875 12.4453C1.94531 12.3047 2.22656 12.2344 2.53125 12.2344C2.71094 12.2344 2.88672 12.2734 3.05859 12.3516C3.23828 12.4219 3.39844 12.5273 3.53906 12.668C3.67969 12.8008 3.79297 12.9648 3.87891 13.1602C3.96484 13.3555 4.00781 13.5781 4.00781 13.8281C4.00781 14.1484 3.95312 14.4492 3.84375 14.7305C3.73438 15.0117 3.58203 15.2734 3.38672 15.5156C3.19922 15.7578 2.97266 15.9805 2.70703 16.1836C2.44141 16.3867 2.15625 16.5625 1.85156 16.7109ZM1.5 15.9492C1.74219 15.8477 1.96094 15.7188 2.15625 15.5625C2.35938 15.4062 2.53125 15.2344 2.67188 15.0469C2.8125 14.8594 2.92188 14.6641 3 14.4609C3.07812 14.25 3.11719 14.0391 3.11719 13.8281C3.11719 13.5938 3.05859 13.418 2.94141 13.3008C2.82422 13.1758 2.6875 13.1133 2.53125 13.1133C2.32031 13.1133 2.14062 13.1719 1.99219 13.2891C1.84375 13.4062 1.72266 13.5586 1.62891 13.7461C1.53516 13.9336 1.46484 14.1445 1.41797 14.3789C1.37891 14.6055 1.35938 14.832 1.35938 15.0586C1.35938 15.1992 1.37109 15.3477 1.39453 15.5039C1.42578 15.6602 1.46094 15.8086 1.5 15.9492ZM13.2539 14.7539C13.168 14.9336 13.0586 15.1484 12.9258 15.3984C12.8008 15.6406 12.6562 15.8945 12.4922 16.1602C12.3281 16.4258 12.1445 16.6914 11.9414 16.957C11.7383 17.2148 11.5156 17.4492 11.2734 17.6602C11.0391 17.8633 10.7852 18.0273 10.5117 18.1523C10.2461 18.2852 9.96094 18.3516 9.65625 18.3516C9.1875 18.3516 8.78516 18.207 8.44922 17.918C8.11328 17.6289 7.82812 17.25 7.59375 16.7812C7.35938 16.3125 7.16797 15.7812 7.01953 15.1875C6.87891 14.5859 6.76953 13.9766 6.69141 13.3594C6.61328 12.7344 6.55859 12.1289 6.52734 11.543C6.50391 10.957 6.49219 10.4375 6.49219 9.98438C6.49219 9.32812 6.51172 8.64844 6.55078 7.94531C6.59766 7.24219 6.66797 6.55469 6.76172 5.88281C6.85547 5.21094 6.97266 4.57422 7.11328 3.97266C7.26172 3.37109 7.43359 2.84375 7.62891 2.39062C7.83203 1.9375 8.0625 1.57813 8.32031 1.3125C8.57812 1.04687 8.87109 0.914062 9.19922 0.914062C9.45703 0.914062 9.6875 0.976562 9.89062 1.10156C10.1016 1.21875 10.2773 1.41406 10.418 1.6875C10.5586 1.96094 10.668 2.31641 10.7461 2.75391C10.8242 3.19141 10.8633 3.72656 10.8633 4.35938C10.8633 5.14062 10.7812 5.94922 10.6172 6.78516C10.4531 7.61328 10.2305 8.44922 9.94922 9.29297C9.66797 10.1367 9.33594 10.9805 8.95312 11.8242C8.57031 12.6602 8.16016 13.4766 7.72266 14.2734C7.91797 15.2656 8.17969 16.0469 8.50781 16.6172C8.83594 17.1797 9.23047 17.4609 9.69141 17.4609C10.0039 17.4609 10.3047 17.3398 10.5938 17.0977C10.8828 16.8477 11.1484 16.5547 11.3906 16.2188C11.6328 15.8828 11.8438 15.543 12.0234 15.1992C12.2109 14.8477 12.3555 14.5664 12.457 14.3555C12.4961 14.2773 12.5508 14.2188 12.6211 14.1797C12.6914 14.1328 12.7695 14.1094 12.8555 14.1094C12.9883 14.1094 13.0938 14.1562 13.1719 14.25C13.2578 14.3438 13.3008 14.4492 13.3008 14.5664C13.3008 14.6133 13.2852 14.6758 13.2539 14.7539ZM7.38281 10.043C7.38281 10.543 7.39453 11.0234 7.41797 11.4844C7.44141 11.9453 7.47266 12.3867 7.51172 12.8086C7.83984 12.1758 8.15234 11.5039 8.44922 10.793C8.74609 10.0742 9.00781 9.35156 9.23438 8.625C9.46094 7.89062 9.64062 7.16406 9.77344 6.44531C9.91406 5.71875 9.98438 5.02734 9.98438 4.37109C9.98438 3.44922 9.91016 2.78906 9.76172 2.39062C9.61328 1.99219 9.41406 1.79297 9.16406 1.79297C9 1.79297 8.83984 1.90625 8.68359 2.13281C8.53516 2.35937 8.39453 2.66797 8.26172 3.05859C8.12891 3.44922 8.00781 3.91016 7.89844 4.44141C7.78906 4.97266 7.69531 5.54297 7.61719 6.15234C7.54688 6.76172 7.48828 7.39844 7.44141 8.0625C7.40234 8.72656 7.38281 9.38672 7.38281 10.043ZM14.3789 8.80078C14.3789 9.09766 14.2734 9.35156 14.0625 9.5625C13.8594 9.76562 13.6094 9.86719 13.3125 9.86719C13.0156 9.86719 12.7617 9.76562 12.5508 9.5625C12.3477 9.35156 12.2461 9.09766 12.2461 8.80078C12.2461 8.65234 12.2734 8.51562 12.3281 8.39062C12.3828 8.25781 12.457 8.14453 12.5508 8.05078C12.6523 7.94922 12.7656 7.87109 12.8906 7.81641C13.0234 7.76172 13.1641 7.73438 13.3125 7.73438C13.4609 7.73438 13.5977 7.76172 13.7227 7.81641C13.8555 7.87109 13.9688 7.94922 14.0625 8.05078C14.1641 8.14453 14.2422 8.25781 14.2969 8.39062C14.3516 8.51562 14.3789 8.65234 14.3789 8.80078ZM12.4805 15.668C12.4805 14.543 12.5508 13.4219 12.6914 12.3047C12.707 12.1953 12.7539 12.1016 12.832 12.0234C12.918 11.9375 13.0273 11.8945 13.1602 11.8945C13.2773 11.8945 13.375 11.9414 13.4531 12.0352C13.5312 12.1211 13.5703 12.2227 13.5703 12.3398C13.5703 12.3867 13.5586 12.5273 13.5352 12.7617C13.5195 12.9961 13.4961 13.2773 13.4648 13.6055C13.4414 13.9258 13.418 14.2695 13.3945 14.6367C13.3789 14.9961 13.3711 15.3281 13.3711 15.6328C13.3711 16.0469 13.4102 16.3828 13.4883 16.6406C13.5742 16.8906 13.6797 17.0859 13.8047 17.2266C13.9375 17.3672 14.0742 17.4609 14.2148 17.5078C14.3633 17.5547 14.5039 17.5781 14.6367 17.5781C14.8555 17.5781 15.082 17.5 15.3164 17.3438C15.5508 17.1875 15.7891 16.9688 16.0312 16.6875C16.2812 16.4062 16.5312 16.0703 16.7812 15.6797C17.0312 15.2812 17.2773 14.8398 17.5195 14.3555C17.5586 14.2773 17.6133 14.2188 17.6836 14.1797C17.7539 14.1328 17.832 14.1094 17.918 14.1094C18.043 14.1094 18.1445 14.1562 18.2227 14.25C18.3086 14.3438 18.3516 14.4453 18.3516 14.5547C18.3516 14.6328 18.3359 14.6992 18.3047 14.7539C18.2109 14.9336 18.0938 15.1523 17.9531 15.4102C17.8125 15.668 17.6523 15.9336 17.4727 16.207C17.293 16.4805 17.0938 16.7539 16.875 17.0273C16.6641 17.293 16.4375 17.5352 16.1953 17.7539C15.9531 17.9648 15.6992 18.1367 15.4336 18.2695C15.168 18.4023 14.8984 18.4688 14.625 18.4688C14.2734 18.4688 13.9648 18.3945 13.6992 18.2461C13.4336 18.0977 13.207 17.8984 13.0195 17.6484C12.8398 17.3984 12.7031 17.1055 12.6094 16.7695C12.5234 16.4258 12.4805 16.0586 12.4805 15.668ZM13.7227 8.80078C13.7227 8.69141 13.6797 8.59766 13.5938 8.51953C13.5156 8.43359 13.4219 8.39062 13.3125 8.39062C13.2031 8.39062 13.1094 8.43359 13.0312 8.51953C12.9531 8.59766 12.9141 8.69141 12.9141 8.80078C12.9141 8.91016 12.9531 9.00391 13.0312 9.08203C13.1094 9.16016 13.2031 9.19922 13.3125 9.19922C13.4219 9.19922 13.5156 9.16016 13.5938 9.08203C13.6797 9.00391 13.7227 8.91016 13.7227 8.80078ZM22.2539 14.3086C22.1367 14.8555 21.9688 15.3672 21.75 15.8438C21.5312 16.3125 21.2969 16.7227 21.0469 17.0742C20.8047 17.4258 20.5586 17.7031 20.3086 17.9062C20.0586 18.1094 19.8438 18.2188 19.6641 18.2344C19.4609 18.2344 19.2344 18.1328 18.9844 17.9297C18.7422 17.7266 18.5078 17.4453 18.2812 17.0859C18.0625 16.7188 17.8789 16.2852 17.7305 15.7852C17.582 15.2852 17.5078 14.7422 17.5078 14.1562C17.5078 13.6406 17.5508 13.25 17.6367 12.9844C17.7305 12.7188 17.7891 12.5664 17.8125 12.5273C17.8516 12.457 17.9023 12.4023 17.9648 12.3633C18.0352 12.3242 18.1133 12.3047 18.1992 12.3047C18.332 12.3047 18.4375 12.3516 18.5156 12.4453C18.5938 12.5312 18.6328 12.6289 18.6328 12.7383C18.6328 12.8164 18.6172 12.8828 18.5859 12.9375C18.5781 12.9531 18.543 13.0586 18.4805 13.2539C18.418 13.4492 18.3867 13.7422 18.3867 14.1328C18.3867 14.5938 18.4336 15.0195 18.5273 15.4102C18.6211 15.8008 18.7344 16.1367 18.8672 16.418C19 16.6992 19.1367 16.9219 19.2773 17.0859C19.4258 17.2422 19.5469 17.3203 19.6406 17.3203C19.7031 17.3203 19.793 17.2617 19.9102 17.1445C20.0352 17.0273 20.1641 16.8672 20.2969 16.6641C20.4375 16.4609 20.5781 16.2188 20.7188 15.9375C20.8672 15.6562 21 15.3516 21.1172 15.0234C21.2422 14.6875 21.3398 14.3359 21.4102 13.9688C21.4883 13.5938 21.5273 13.2148 21.5273 12.832C21.5273 12.7539 21.5234 12.6797 21.5156 12.6094C21.5156 12.5312 21.5156 12.4531 21.5156 12.375C21.5156 12.2422 21.5547 12.1328 21.6328 12.0469C21.7188 11.9531 21.8281 11.9062 21.9609 11.9062C22.0625 11.9062 22.1523 11.9375 22.2305 12C22.3164 12.0625 22.3711 12.1484 22.3945 12.2578C22.3945 12.25 22.4102 12.3125 22.4414 12.4453C22.4727 12.5781 22.5234 12.75 22.5938 12.9609C22.6719 13.1641 22.7656 13.3867 22.875 13.6289C22.9922 13.8711 23.1289 14.0977 23.2852 14.3086C23.4492 14.5117 23.6367 14.6836 23.8477 14.8242C24.0586 14.9648 24.3008 15.0352 24.5742 15.0352C24.7227 15.0352 24.8516 15.0039 24.9609 14.9414C25.0703 14.8789 25.1602 14.8086 25.2305 14.7305C25.3008 14.6523 25.3516 14.5781 25.3828 14.5078C25.4219 14.4375 25.4414 14.3984 25.4414 14.3906C25.4727 14.3047 25.5234 14.2383 25.5938 14.1914C25.6719 14.1367 25.7578 14.1094 25.8516 14.1094C25.9766 14.1094 26.082 14.1562 26.168 14.25C26.2539 14.3359 26.2969 14.4375 26.2969 14.5547C26.2969 14.6094 26.2852 14.6641 26.2617 14.7188C26.2148 14.8281 26.1445 14.9531 26.0508 15.0938C25.9648 15.2344 25.8516 15.3672 25.7109 15.4922C25.5703 15.6172 25.4023 15.7227 25.207 15.8086C25.0195 15.8867 24.8086 15.9258 24.5742 15.9258C24.3008 15.9258 24.0469 15.8789 23.8125 15.7852C23.5781 15.6836 23.3633 15.5586 23.168 15.4102C22.9805 15.2539 22.8086 15.082 22.6523 14.8945C22.4961 14.6992 22.3633 14.5039 22.2539 14.3086ZM26.8594 16.7109C27.0234 16.9375 27.2344 17.1211 27.4922 17.2617C27.75 17.3945 28.0664 17.4609 28.4414 17.4609C28.8242 17.4609 29.1719 17.3711 29.4844 17.1914C29.7969 17.0039 30.082 16.7617 30.3398 16.4648C30.5977 16.168 30.8281 15.8359 31.0312 15.4688C31.2344 15.1016 31.418 14.7344 31.582 14.3672C31.6211 14.2812 31.6758 14.2188 31.7461 14.1797C31.8164 14.1328 31.8945 14.1094 31.9805 14.1094C32.1133 14.1094 32.2188 14.1562 32.2969 14.25C32.3828 14.3438 32.4258 14.4453 32.4258 14.5547C32.4258 14.5938 32.4219 14.6289 32.4141 14.6602C32.4062 14.6836 32.3945 14.7109 32.3789 14.7422C31.8398 15.9297 31.25 16.8242 30.6094 17.4258C29.9766 18.0273 29.2578 18.3359 28.4531 18.3516C27.9375 18.3516 27.4922 18.25 27.1172 18.0469C26.7422 17.8516 26.4336 17.5977 26.1914 17.2852C25.9492 16.9648 25.7695 16.6055 25.6523 16.207C25.5352 15.8086 25.4766 15.4102 25.4766 15.0117C25.4766 14.6133 25.5234 14.2461 25.6172 13.9102C25.7188 13.5742 25.8594 13.2812 26.0391 13.0312C26.2266 12.7812 26.4453 12.5859 26.6953 12.4453C26.9531 12.3047 27.2344 12.2344 27.5391 12.2344C27.7188 12.2344 27.8945 12.2734 28.0664 12.3516C28.2461 12.4219 28.4062 12.5273 28.5469 12.668C28.6875 12.8008 28.8008 12.9648 28.8867 13.1602C28.9727 13.3555 29.0156 13.5781 29.0156 13.8281C29.0156 14.1484 28.9609 14.4492 28.8516 14.7305C28.7422 15.0117 28.5898 15.2734 28.3945 15.5156C28.207 15.7578 27.9805 15.9805 27.7148 16.1836C27.4492 16.3867 27.1641 16.5625 26.8594 16.7109ZM26.5078 15.9492C26.75 15.8477 26.9688 15.7188 27.1641 15.5625C27.3672 15.4062 27.5391 15.2344 27.6797 15.0469C27.8203 14.8594 27.9297 14.6641 28.0078 14.4609C28.0859 14.25 28.125 14.0391 28.125 13.8281C28.125 13.5938 28.0664 13.418 27.9492 13.3008C27.832 13.1758 27.6953 13.1133 27.5391 13.1133C27.3281 13.1133 27.1484 13.1719 27 13.2891C26.8516 13.4062 26.7305 13.5586 26.6367 13.7461C26.543 13.9336 26.4727 14.1445 26.4258 14.3789C26.3867 14.6055 26.3672 14.832 26.3672 15.0586C26.3672 15.1992 26.3789 15.3477 26.4023 15.5039C26.4336 15.6602 26.4688 15.8086 26.5078 15.9492ZM32.8242 13.1836C32.793 13.3945 32.7539 13.5938 32.707 13.7812C32.6602 13.9609 32.6133 14.1211 32.5664 14.2617C32.5273 14.3945 32.4922 14.5039 32.4609 14.5898C32.4297 14.6758 32.4102 14.7227 32.4023 14.7305C32.3242 14.9102 32.1875 15 31.9922 15C31.8828 15 31.7812 14.9609 31.6875 14.8828C31.5938 14.7969 31.5469 14.6914 31.5469 14.5664C31.5469 14.5195 31.5547 14.4844 31.5703 14.4609C31.5859 14.4375 31.6094 14.3906 31.6406 14.3203C31.6719 14.25 31.7109 14.1328 31.7578 13.9688C31.8047 13.8047 31.8633 13.5508 31.9336 13.207C31.8008 13.207 31.6641 13.2031 31.5234 13.1953C31.3828 13.1875 31.2539 13.1602 31.1367 13.1133C31.0117 13.0664 30.9102 12.9922 30.832 12.8906C30.7539 12.7891 30.7148 12.6484 30.7148 12.4688C30.7148 12.3359 30.7539 12.1562 30.832 11.9297C30.9023 11.7031 31 11.4805 31.125 11.2617C31.25 11.043 31.3906 10.8555 31.5469 10.6992C31.7031 10.5352 31.8594 10.4531 32.0156 10.4531C32.1953 10.4531 32.3398 10.5195 32.4492 10.6523C32.5664 10.7852 32.6562 10.9492 32.7188 11.1445C32.7812 11.332 32.8242 11.5312 32.8477 11.7422C32.8789 11.9531 32.8945 12.1367 32.8945 12.293C33.0273 12.293 33.1562 12.293 33.2812 12.293C33.4141 12.2852 33.5391 12.2812 33.6562 12.2812C34.1016 12.2812 34.4414 12.3789 34.6758 12.5742C34.9102 12.7695 35.0273 13.0898 35.0273 13.5352C35.0273 13.7148 35.0156 13.9023 34.9922 14.0977C34.9688 14.293 34.9414 14.4961 34.9102 14.707C34.8789 14.9102 34.8516 15.1133 34.8281 15.3164C34.8047 15.5195 34.793 15.7188 34.793 15.9141C34.793 16.1953 34.832 16.4297 34.9102 16.6172C34.9883 16.7969 35.0859 16.9414 35.2031 17.0508C35.3203 17.1602 35.4453 17.2383 35.5781 17.2852C35.7109 17.3242 35.832 17.3438 35.9414 17.3438C36.2773 17.3438 36.5938 17.2344 36.8906 17.0156C37.1875 16.7969 37.4609 16.5352 37.7109 16.2305C37.9609 15.918 38.1836 15.5898 38.3789 15.2461C38.582 14.9023 38.75 14.6016 38.8828 14.3438C38.9219 14.2734 38.9766 14.2188 39.0469 14.1797C39.1172 14.1406 39.1914 14.1211 39.2695 14.1211C39.4102 14.1211 39.5195 14.168 39.5977 14.2617C39.6758 14.3477 39.7148 14.4453 39.7148 14.5547C39.7148 14.6328 39.6992 14.7031 39.668 14.7656C39.4883 15.0859 39.2773 15.4492 39.0352 15.8555C38.8008 16.2539 38.5312 16.6289 38.2266 16.9805C37.9219 17.332 37.5781 17.6289 37.1953 17.8711C36.8203 18.1133 36.4062 18.2344 35.9531 18.2344C35.6719 18.2344 35.4062 18.1797 35.1562 18.0703C34.9062 17.9688 34.6875 17.8203 34.5 17.625C34.3203 17.4219 34.1758 17.1758 34.0664 16.8867C33.957 16.5898 33.9023 16.2578 33.9023 15.8906C33.9023 15.5 33.9414 15.1133 34.0195 14.7305C34.0977 14.3398 34.1367 13.9688 34.1367 13.6172C34.1367 13.4688 34.1016 13.3594 34.0312 13.2891C33.9688 13.2109 33.8242 13.1719 33.5977 13.1719C33.4883 13.1719 33.3672 13.1719 33.2344 13.1719C33.1094 13.1719 32.9727 13.1758 32.8242 13.1836ZM32.0391 12.3164C32.0391 12.2617 32.0352 12.1914 32.0273 12.1055C32.0273 12.0117 32.0195 11.9219 32.0039 11.8359C31.9961 11.75 31.9805 11.6758 31.957 11.6133C31.9414 11.5508 31.9219 11.5195 31.8984 11.5195C31.875 11.5195 31.8438 11.5508 31.8047 11.6133C31.7734 11.668 31.7383 11.7383 31.6992 11.8242C31.6602 11.9023 31.625 11.9883 31.5938 12.082C31.5625 12.1758 31.5391 12.2539 31.5234 12.3164H32.0391ZM40.793 8.80078C40.793 9.09766 40.6875 9.35156 40.4766 9.5625C40.2734 9.76562 40.0234 9.86719 39.7266 9.86719C39.4297 9.86719 39.1758 9.76562 38.9648 9.5625C38.7617 9.35156 38.6602 9.09766 38.6602 8.80078C38.6602 8.65234 38.6875 8.51562 38.7422 8.39062C38.7969 8.25781 38.8711 8.14453 38.9648 8.05078C39.0664 7.94922 39.1797 7.87109 39.3047 7.81641C39.4375 7.76172 39.5781 7.73438 39.7266 7.73438C39.875 7.73438 40.0117 7.76172 40.1367 7.81641C40.2695 7.87109 40.3828 7.94922 40.4766 8.05078C40.5781 8.14453 40.6562 8.25781 40.7109 8.39062C40.7656 8.51562 40.793 8.65234 40.793 8.80078ZM38.8945 15.668C38.8945 14.543 38.9648 13.4219 39.1055 12.3047C39.1211 12.1953 39.168 12.1016 39.2461 12.0234C39.332 11.9375 39.4414 11.8945 39.5742 11.8945C39.6914 11.8945 39.7891 11.9414 39.8672 12.0352C39.9453 12.1211 39.9844 12.2227 39.9844 12.3398C39.9844 12.3867 39.9727 12.5273 39.9492 12.7617C39.9336 12.9961 39.9102 13.2773 39.8789 13.6055C39.8555 13.9258 39.832 14.2695 39.8086 14.6367C39.793 14.9961 39.7852 15.3281 39.7852 15.6328C39.7852 16.0469 39.8242 16.3828 39.9023 16.6406C39.9883 16.8906 40.0938 17.0859 40.2188 17.2266C40.3516 17.3672 40.4883 17.4609 40.6289 17.5078C40.7773 17.5547 40.918 17.5781 41.0508 17.5781C41.2695 17.5781 41.4961 17.5 41.7305 17.3438C41.9648 17.1875 42.2031 16.9688 42.4453 16.6875C42.6953 16.4062 42.9453 16.0703 43.1953 15.6797C43.4453 15.2812 43.6914 14.8398 43.9336 14.3555C43.9727 14.2773 44.0273 14.2188 44.0977 14.1797C44.168 14.1328 44.2461 14.1094 44.332 14.1094C44.457 14.1094 44.5586 14.1562 44.6367 14.25C44.7227 14.3438 44.7656 14.4453 44.7656 14.5547C44.7656 14.6328 44.75 14.6992 44.7188 14.7539C44.625 14.9336 44.5078 15.1523 44.3672 15.4102C44.2266 15.668 44.0664 15.9336 43.8867 16.207C43.707 16.4805 43.5078 16.7539 43.2891 17.0273C43.0781 17.293 42.8516 17.5352 42.6094 17.7539C42.3672 17.9648 42.1133 18.1367 41.8477 18.2695C41.582 18.4023 41.3125 18.4688 41.0391 18.4688C40.6875 18.4688 40.3789 18.3945 40.1133 18.2461C39.8477 18.0977 39.6211 17.8984 39.4336 17.6484C39.2539 17.3984 39.1172 17.1055 39.0234 16.7695C38.9375 16.4258 38.8945 16.0586 38.8945 15.668ZM40.1367 8.80078C40.1367 8.69141 40.0938 8.59766 40.0078 8.51953C39.9297 8.43359 39.8359 8.39062 39.7266 8.39062C39.6172 8.39062 39.5234 8.43359 39.4453 8.51953C39.3672 8.59766 39.3281 8.69141 39.3281 8.80078C39.3281 8.91016 39.3672 9.00391 39.4453 9.08203C39.5234 9.16016 39.6172 9.19922 39.7266 9.19922C39.8359 9.19922 39.9297 9.16016 40.0078 9.08203C40.0938 9.00391 40.1367 8.91016 40.1367 8.80078ZM46.5234 16.9453C46.6484 16.6875 46.793 16.4062 46.957 16.1016C47.1211 15.7891 47.2969 15.4766 47.4844 15.1641C47.6719 14.8438 47.8672 14.5273 48.0703 14.2148C48.2812 13.9023 48.5 13.6055 48.7266 13.3242C48.9531 13.0508 49.1797 12.8555 49.4062 12.7383C49.6406 12.6133 49.8594 12.5508 50.0625 12.5508C50.4688 12.5508 50.7695 12.6992 50.9648 12.9961C51.1602 13.293 51.2578 13.6602 51.2578 14.0977C51.2578 14.1992 51.25 14.3242 51.2344 14.4727C51.2266 14.6133 51.2148 14.7656 51.1992 14.9297C51.1914 15.0938 51.1797 15.2617 51.1641 15.4336C51.1562 15.5977 51.1523 15.7539 51.1523 15.9023C51.1523 16.0898 51.1602 16.2695 51.1758 16.4414C51.1992 16.6133 51.2383 16.7656 51.293 16.8984C51.3477 17.0234 51.4258 17.125 51.5273 17.2031C51.6289 17.2734 51.7617 17.3086 51.9258 17.3086C52.2227 17.3086 52.5117 17.1953 52.793 16.9688C53.0742 16.7344 53.332 16.4609 53.5664 16.1484C53.8086 15.8281 54.0156 15.5039 54.1875 15.1758C54.3672 14.8477 54.5 14.582 54.5859 14.3789C54.625 14.293 54.6797 14.2266 54.75 14.1797C54.8281 14.1328 54.9102 14.1094 54.9961 14.1094C55.1289 14.1094 55.2344 14.1602 55.3125 14.2617C55.3984 14.3555 55.4414 14.457 55.4414 14.5664C55.4414 14.6211 55.4297 14.6758 55.4062 14.7305C55.375 14.793 55.3125 14.9219 55.2188 15.1172C55.125 15.3125 55 15.5391 54.8438 15.7969C54.6953 16.0469 54.5195 16.3164 54.3164 16.6055C54.1133 16.8867 53.8867 17.1445 53.6367 17.3789C53.3945 17.6133 53.1289 17.8086 52.8398 17.9648C52.5586 18.1211 52.2617 18.1992 51.9492 18.1992C51.5977 18.1992 51.3125 18.1328 51.0938 18C50.875 17.8594 50.7031 17.6797 50.5781 17.4609C50.4531 17.2344 50.3672 16.9883 50.3203 16.7227C50.2812 16.4492 50.2617 16.1758 50.2617 15.9023C50.2617 15.7852 50.2656 15.6523 50.2734 15.5039C50.2891 15.3555 50.3047 15.1992 50.3203 15.0352C50.3438 14.8711 50.3594 14.707 50.3672 14.543C50.3828 14.3789 50.3906 14.2227 50.3906 14.0742C50.3906 13.8242 50.3516 13.6562 50.2734 13.5703C50.1953 13.4766 50.125 13.4297 50.0625 13.4297C49.9375 13.4297 49.793 13.5039 49.6289 13.6523C49.4727 13.793 49.3047 13.9805 49.125 14.2148C48.9531 14.4492 48.7734 14.7148 48.5859 15.0117C48.4062 15.3008 48.2344 15.5898 48.0703 15.8789C47.9141 16.168 47.7656 16.4453 47.625 16.7109C47.4922 16.9688 47.3867 17.1836 47.3086 17.3555C47.1523 17.6836 46.9961 17.9023 46.8398 18.0117C46.6836 18.1289 46.5234 18.1875 46.3594 18.1875C46.1328 18.1875 45.9492 18.1211 45.8086 17.9883C45.6758 17.8477 45.6094 17.6523 45.6094 17.4023C45.6094 17.3477 45.6172 17.2422 45.6328 17.0859C45.6484 16.9219 45.668 16.7305 45.6914 16.5117C45.7148 16.2852 45.7383 16.043 45.7617 15.7852C45.7852 15.5273 45.8086 15.2734 45.832 15.0234C45.8555 14.7656 45.875 14.5273 45.8906 14.3086C45.9062 14.0898 45.9141 13.9062 45.9141 13.7578C45.9141 13.5625 45.9062 13.375 45.8906 13.1953C45.875 13.0156 45.8438 12.9062 45.7969 12.8672C45.7266 12.8906 45.6016 13.0391 45.4219 13.3125C45.2422 13.5781 45.0117 14.0508 44.7305 14.7305C44.6914 14.8164 44.6328 14.8828 44.5547 14.9297C44.4766 14.9766 44.3945 15 44.3086 15C44.1758 15 44.0703 14.957 43.9922 14.8711C43.9141 14.7773 43.875 14.6719 43.875 14.5547C43.875 14.5 43.8867 14.4414 43.9102 14.3789C44.2617 13.543 44.5898 12.9297 44.8945 12.5391C45.207 12.1406 45.5156 11.9414 45.8203 11.9414C46 11.9414 46.1523 11.9883 46.2773 12.082C46.4023 12.168 46.5 12.2852 46.5703 12.4336C46.6484 12.582 46.7031 12.7461 46.7344 12.9258C46.7734 13.1055 46.793 13.2891 46.793 13.4766C46.793 13.6172 46.7812 13.8359 46.7578 14.1328C46.7422 14.4297 46.7188 14.75 46.6875 15.0938C46.6562 15.4297 46.625 15.7656 46.5938 16.1016C46.5703 16.4375 46.5469 16.7188 46.5234 16.9453ZM58.8516 19.1484C60.3203 17.2344 61.3398 15.6445 61.9102 14.3789C61.9492 14.293 62 14.2305 62.0625 14.1914C62.1328 14.1445 62.2109 14.1211 62.2969 14.1211C62.4297 14.1211 62.5391 14.168 62.625 14.2617C62.7109 14.3477 62.7539 14.4492 62.7539 14.5664C62.7539 14.6211 62.7422 14.6758 62.7188 14.7305C62.375 15.5117 61.8867 16.3828 61.2539 17.3438C60.6211 18.3047 59.8203 19.3906 58.8516 20.6016C58.8516 21.0938 58.8555 21.5859 58.8633 22.0781C58.8711 22.5703 58.875 23.1094 58.875 23.6953C58.875 24.2812 58.8594 24.8594 58.8281 25.4297C58.8047 26.0078 58.7578 26.5547 58.6875 27.0703C58.6172 27.5938 58.5195 28.0742 58.3945 28.5117C58.2773 28.957 58.1211 29.3398 57.9258 29.6602C57.7383 29.9883 57.5078 30.2422 57.2344 30.4219C56.9688 30.6094 56.6523 30.7031 56.2852 30.7031C55.7617 30.7031 55.3594 30.5039 55.0781 30.1055C54.7969 29.707 54.6562 29.1406 54.6562 28.4062C54.6562 28.0156 54.6914 27.5898 54.7617 27.1289C54.8398 26.6758 54.9492 26.207 55.0898 25.7227C55.2305 25.2383 55.3984 24.7461 55.5938 24.2461C55.7969 23.7539 56.0195 23.2734 56.2617 22.8047C56.5039 22.3359 56.7656 21.8867 57.0469 21.457C57.3359 21.0273 57.6406 20.6367 57.9609 20.2852C57.9688 19.7383 57.9727 19.1953 57.9727 18.6562C57.9805 18.1172 57.9922 17.6211 58.0078 17.168C57.7734 17.4648 57.4922 17.6992 57.1641 17.8711C56.8438 18.043 56.5234 18.1289 56.2031 18.1289C55.9297 18.1289 55.6797 18.0781 55.4531 17.9766C55.2344 17.8672 55.0469 17.7188 54.8906 17.5312C54.7344 17.3359 54.6133 17.1094 54.5273 16.8516C54.4414 16.5938 54.3984 16.3125 54.3984 16.0078C54.3984 15.3984 54.5 14.8633 54.7031 14.4023C54.9141 13.9336 55.1797 13.543 55.5 13.2305C55.8203 12.918 56.1719 12.6836 56.5547 12.5273C56.9453 12.3711 57.3203 12.293 57.6797 12.293C57.9219 12.293 58.1445 12.3242 58.3477 12.3867C58.5508 12.4492 58.7227 12.5195 58.8633 12.5977C59.0117 12.6758 59.125 12.75 59.2031 12.8203C59.2812 12.8906 59.3242 12.9297 59.332 12.9375C59.418 13.0312 59.4609 13.1367 59.4609 13.2539C59.4609 13.3711 59.418 13.4766 59.332 13.5703C59.2461 13.6562 59.1445 13.6992 59.0273 13.6992C58.918 13.6992 58.8125 13.6562 58.7109 13.5703C58.6797 13.5469 58.6367 13.5156 58.582 13.4766C58.5352 13.4297 58.4688 13.3828 58.3828 13.3359C58.3047 13.2891 58.207 13.25 58.0898 13.2188C57.9805 13.1875 57.8477 13.1719 57.6914 13.1719C57.457 13.1719 57.1992 13.2266 56.918 13.3359C56.6367 13.4375 56.375 13.6016 56.1328 13.8281C55.8906 14.0547 55.6875 14.3477 55.5234 14.707C55.3594 15.0586 55.2773 15.4844 55.2773 15.9844C55.2773 16.3594 55.3594 16.6641 55.5234 16.8984C55.6875 17.125 55.9414 17.2383 56.2852 17.2383C56.4492 17.2383 56.6211 17.1914 56.8008 17.0977C56.9883 17.0039 57.168 16.8594 57.3398 16.6641C57.5117 16.4688 57.6602 16.2227 57.7852 15.9258C57.918 15.6289 58.0117 15.2773 58.0664 14.8711C58.082 14.7617 58.1328 14.6719 58.2188 14.6016C58.3047 14.5234 58.4062 14.4844 58.5234 14.4844C58.6562 14.4844 58.7578 14.5312 58.8281 14.625C58.9062 14.7188 58.9453 14.8242 58.9453 14.9414C58.9453 14.9492 58.9414 15.0703 58.9336 15.3047C58.9258 15.5312 58.918 15.8359 58.9102 16.2188C58.9023 16.6016 58.8906 17.0469 58.875 17.5547C58.8672 18.0547 58.8594 18.5859 58.8516 19.1484ZM57.9609 21.7148C57.5938 22.2227 57.2617 22.7734 56.9648 23.3672C56.668 23.9688 56.4141 24.5742 56.2031 25.1836C55.9922 25.793 55.8281 26.3828 55.7109 26.9531C55.6016 27.5312 55.5469 28.0469 55.5469 28.5C55.5469 28.7891 55.5703 29.0195 55.6172 29.1914C55.6719 29.3633 55.7344 29.4961 55.8047 29.5898C55.8828 29.6836 55.9648 29.7461 56.0508 29.7773C56.1445 29.8086 56.2305 29.8242 56.3086 29.8242C56.5508 29.8242 56.7617 29.7266 56.9414 29.5312C57.1211 29.3359 57.2734 29.0742 57.3984 28.7461C57.5234 28.4258 57.625 28.0547 57.7031 27.6328C57.7812 27.2109 57.8398 26.7734 57.8789 26.3203C57.918 25.875 57.9453 25.4297 57.9609 24.9844C57.9766 24.5391 57.9844 24.1289 57.9844 23.7539C57.9844 23.418 57.9844 23.082 57.9844 22.7461C57.9844 22.4102 57.9766 22.0664 57.9609 21.7148Z" fill="black"/>
</svg>
