<svg width="21" height="19" viewBox="0 0 21 19" fill="none" xmlns="http://www.w3.org/2000/svg">
<path d="M20.2578 5.69531C20.2344 5.80469 20.1836 5.89062 20.1055 5.95312C20.0273 6.01562 19.9414 6.04688 19.8477 6.04688C19.707 6.04688 19.5938 6.00391 19.5078 5.91797C19.4219 5.82422 19.3789 5.71875 19.3789 5.60156C19.3789 5.48438 19.3906 5.37109 19.4141 5.26172C19.4375 5.14453 19.4492 5.03125 19.4492 4.92188C19.4492 4.35156 19.2734 3.83984 18.9219 3.38672C18.5703 2.93359 18.0703 2.55469 17.4219 2.25C16.7812 1.9375 16 1.69922 15.0781 1.53516C14.1562 1.37109 13.1289 1.28906 11.9961 1.28906C11.1289 1.28906 10.2539 1.34766 9.37109 1.46484C8.49609 1.57422 7.65234 1.73828 6.83984 1.95703C6.03516 2.16797 5.28125 2.4375 4.57812 2.76562C3.875 3.08594 3.26172 3.46094 2.73828 3.89062C2.22266 4.3125 1.81641 4.78516 1.51953 5.30859C1.22266 5.82422 1.07422 6.39062 1.07422 7.00781C1.07422 7.48438 1.17578 7.90625 1.37891 8.27344C1.58984 8.63281 1.875 8.94922 2.23438 9.22266C2.59375 9.48828 3.01562 9.71875 3.5 9.91406C3.99219 10.1016 4.52344 10.2617 5.09375 10.3945C5.66406 10.5195 6.25781 10.625 6.875 10.7109C7.49219 10.7891 8.11328 10.8555 8.73828 10.9102L10.543 11.0625C11.4414 11.1406 12.2461 11.2227 12.957 11.3086C13.668 11.3945 14.293 11.5039 14.832 11.6367C15.7305 11.8633 16.3945 12.1875 16.8242 12.6094C17.2539 13.0312 17.4688 13.5938 17.4688 14.2969C17.4688 14.9766 17.2812 15.5742 16.9062 16.0898C16.5312 16.6055 16.0195 17.0391 15.3711 17.3906C14.7227 17.7422 13.9648 18.0078 13.0977 18.1875C12.2305 18.3672 11.3008 18.457 10.3086 18.457C9.23047 18.457 8.28125 18.3828 7.46094 18.2344C6.64844 18.0938 5.96484 17.9375 5.41016 17.7656C4.86328 17.5859 4.44531 17.4219 4.15625 17.2734C3.86719 17.125 3.71094 17.043 3.6875 17.0273C3.54688 16.9492 3.47656 16.8242 3.47656 16.6523C3.47656 16.5195 3.52344 16.4141 3.61719 16.3359C3.71094 16.25 3.8125 16.207 3.92188 16.207C4.00781 16.207 4.08594 16.2305 4.15625 16.2773C4.16406 16.2773 4.29688 16.3477 4.55469 16.4883C4.82031 16.6211 5.21094 16.7695 5.72656 16.9336C6.25 17.0977 6.89453 17.2461 7.66016 17.3789C8.42578 17.5117 9.31641 17.5781 10.332 17.5781C11.3398 17.5781 12.2305 17.4961 13.0039 17.332C13.7773 17.168 14.4258 16.9414 14.9492 16.6523C15.4805 16.3555 15.8789 16.0117 16.1445 15.6211C16.418 15.2227 16.5547 14.793 16.5547 14.332C16.5547 14.0586 16.5039 13.8242 16.4023 13.6289C16.3086 13.4258 16.1758 13.2539 16.0039 13.1133C15.832 12.9648 15.625 12.8398 15.3828 12.7383C15.1484 12.6367 14.8906 12.5508 14.6094 12.4805C14.3125 12.4023 13.9922 12.3359 13.6484 12.2812C13.3125 12.2266 12.9648 12.1797 12.6055 12.1406C12.2461 12.1016 11.8828 12.0664 11.5156 12.0352C11.1562 12.0039 10.8008 11.9727 10.4492 11.9414L8.64453 11.7891C7.22266 11.6719 5.98047 11.4922 4.91797 11.25C3.86328 11 2.98438 10.6836 2.28125 10.3008C1.57812 9.91016 1.05078 9.44531 0.699219 8.90625C0.347656 8.36719 0.171875 7.73828 0.171875 7.01953C0.171875 6.28516 0.335938 5.61328 0.664062 5.00391C1 4.38672 1.45312 3.83203 2.02344 3.33984C2.60156 2.84766 3.27344 2.42188 4.03906 2.0625C4.8125 1.69531 5.63672 1.39063 6.51172 1.14844C7.38672 0.90625 8.29297 0.726562 9.23047 0.609375C10.168 0.484375 11.0898 0.421875 11.9961 0.421875C13.1289 0.421875 14.1133 0.492188 14.9492 0.632812C15.793 0.765625 16.5117 0.941406 17.1055 1.16016C17.707 1.37109 18.1992 1.61328 18.582 1.88672C18.9648 2.16016 19.2734 2.42969 19.5078 2.69531C20.0625 3.34375 20.3398 4.08203 20.3398 4.91016C20.3398 5.18359 20.3125 5.44531 20.2578 5.69531Z" fill="black"/>
</svg>
