<svg width="42" height="9" viewBox="0 0 42 9" fill="none" xmlns="http://www.w3.org/2000/svg">
<path d="M4.33594 6.6875C4.0625 7.13281 3.74219 7.48438 3.375 7.74219C3.01562 8 2.65234 8.12891 2.28516 8.12891C1.98828 8.12891 1.72266 8.07422 1.48828 7.96484C1.25391 7.85547 1.05078 7.70312 0.878906 7.50781C0.707031 7.30469 0.574219 7.0625 0.480469 6.78125C0.394531 6.5 0.351562 6.18359 0.351562 5.83203C0.351562 5.28516 0.402344 4.80078 0.503906 4.37891C0.613281 3.95703 0.730469 3.60547 0.855469 3.32422C0.980469 3.03516 1.09766 2.81641 1.20703 2.66797C1.31641 2.51953 1.37109 2.44531 1.37109 2.44531C1.41016 2.39844 1.45703 2.36328 1.51172 2.33984C1.57422 2.31641 1.63672 2.30469 1.69922 2.30469C1.82422 2.30469 1.92578 2.35156 2.00391 2.44531C2.08984 2.53125 2.13281 2.63281 2.13281 2.75C2.13281 2.79688 2.12109 2.84375 2.09766 2.89062C2.08203 2.9375 2.0625 2.98438 2.03906 3.03125C2 3.10156 1.9375 3.21094 1.85156 3.35938C1.76562 3.5 1.67578 3.6875 1.58203 3.92188C1.48828 4.15625 1.40625 4.43359 1.33594 4.75391C1.26562 5.06641 1.23047 5.42578 1.23047 5.83203C1.23047 6.29297 1.32031 6.64453 1.5 6.88672C1.6875 7.12109 1.94922 7.23828 2.28516 7.23828C2.42578 7.23828 2.58594 7.19531 2.76562 7.10938C2.95312 7.01562 3.13281 6.875 3.30469 6.6875C3.48438 6.5 3.64062 6.26172 3.77344 5.97266C3.90625 5.68359 3.99219 5.34375 4.03125 4.95312L4.20703 2.9375C4.22266 2.82031 4.27344 2.72266 4.35938 2.64453C4.44531 2.56641 4.54688 2.52734 4.66406 2.52734C4.79688 2.52734 4.90234 2.57812 4.98047 2.67969C5.05859 2.77344 5.09766 2.88281 5.09766 3.00781L4.94531 4.95312C4.92969 5.11719 4.93359 5.33203 4.95703 5.59766C4.98828 5.86328 5.04688 6.125 5.13281 6.38281C5.21875 6.64062 5.34766 6.86328 5.51953 7.05078C5.69141 7.23047 5.91797 7.32031 6.19922 7.32031C6.40234 7.32031 6.60156 7.26953 6.79688 7.16797C6.99219 7.05859 7.17969 6.91797 7.35938 6.74609C7.53906 6.57422 7.70312 6.38281 7.85156 6.17188C8.00781 5.95312 8.14844 5.73438 8.27344 5.51562C8.40625 5.29688 8.51953 5.08984 8.61328 4.89453C8.70703 4.69141 8.78516 4.51953 8.84766 4.37891C8.88672 4.29297 8.94141 4.22656 9.01172 4.17969C9.08203 4.13281 9.16016 4.10938 9.24609 4.10938C9.38672 4.10938 9.49609 4.15625 9.57422 4.25C9.65234 4.34375 9.69141 4.44531 9.69141 4.55469C9.69141 4.61719 9.67969 4.67578 9.65625 4.73047C9.625 4.79297 9.5625 4.92578 9.46875 5.12891C9.38281 5.32422 9.26562 5.55078 9.11719 5.80859C8.97656 6.05859 8.80469 6.32422 8.60156 6.60547C8.39844 6.88672 8.17188 7.14844 7.92188 7.39062C7.67188 7.625 7.39844 7.82031 7.10156 7.97656C6.8125 8.125 6.5 8.19922 6.16406 8.19922C5.70312 8.19922 5.32031 8.07031 5.01562 7.8125C4.71094 7.54688 4.48438 7.17188 4.33594 6.6875ZM16.5234 4.75391C16.4766 4.83984 16.3945 4.99609 16.2773 5.22266C16.168 5.44922 16.0156 5.70703 15.8203 5.99609C15.6328 6.27734 15.4062 6.57031 15.1406 6.875C14.875 7.17969 14.5703 7.46094 14.2266 7.71875C13.8828 7.96875 13.4961 8.17578 13.0664 8.33984C12.6445 8.50391 12.1836 8.58594 11.6836 8.58594C11.2383 8.58594 10.8438 8.50391 10.5 8.33984C10.1562 8.18359 9.86328 7.96094 9.62109 7.67188C9.37891 7.375 9.19531 7.02734 9.07031 6.62891C8.94531 6.23047 8.88281 5.78906 8.88281 5.30469C8.88281 4.83594 8.94922 4.39844 9.08203 3.99219C9.21484 3.57812 9.39453 3.21875 9.62109 2.91406C9.85547 2.60938 10.125 2.37109 10.4297 2.19922C10.7344 2.01953 11.0586 1.92969 11.4023 1.92969C11.6602 1.92969 11.8945 1.97656 12.1055 2.07031C12.3164 2.15625 12.4922 2.27344 12.6328 2.42188C12.7812 2.57031 12.8945 2.73438 12.9727 2.91406C13.0586 3.09375 13.1016 3.27344 13.1016 3.45312C13.1016 3.625 13.0781 3.78516 13.0312 3.93359C12.9922 4.08203 12.9375 4.21484 12.8672 4.33203C12.8047 4.44141 12.7305 4.53125 12.6445 4.60156C12.5586 4.66406 12.4727 4.69531 12.3867 4.69531C12.2539 4.69531 12.1445 4.65234 12.0586 4.56641C11.9805 4.48047 11.9414 4.375 11.9414 4.25C11.9414 4.1875 11.9531 4.13281 11.9766 4.08594C12.0078 4.03906 12.0391 3.99219 12.0703 3.94531C12.1094 3.89062 12.1406 3.82812 12.1641 3.75781C12.1953 3.67969 12.2109 3.58203 12.2109 3.46484C12.2109 3.30078 12.1328 3.15234 11.9766 3.01953C11.8281 2.88672 11.6367 2.82031 11.4023 2.82031C11.1836 2.82031 10.9727 2.88672 10.7695 3.01953C10.5742 3.15234 10.4023 3.33203 10.2539 3.55859C10.1055 3.77734 9.98438 4.03906 9.89062 4.34375C9.80469 4.64062 9.76172 4.95703 9.76172 5.29297C9.76172 5.61328 9.80078 5.91797 9.87891 6.20703C9.95703 6.49609 10.0742 6.75391 10.2305 6.98047C10.3867 7.19922 10.582 7.375 10.8164 7.50781C11.0586 7.64062 11.3438 7.70703 11.6719 7.70703C12.0938 7.70703 12.4844 7.63281 12.8438 7.48438C13.2031 7.32812 13.5312 7.13281 13.8281 6.89844C14.125 6.66406 14.3867 6.41016 14.6133 6.13672C14.8398 5.85547 15.0312 5.59375 15.1875 5.35156C15.3516 5.10156 15.4766 4.88672 15.5625 4.70703C15.6562 4.51953 15.7109 4.40234 15.7266 4.35547C15.7578 4.27734 15.8086 4.21875 15.8789 4.17969C15.957 4.13281 16.0391 4.10938 16.125 4.10938C16.2578 4.10938 16.3633 4.15625 16.4414 4.25C16.5273 4.34375 16.5703 4.44922 16.5703 4.56641C16.5703 4.61328 16.5547 4.67578 16.5234 4.75391ZM23.3906 4.75391C23.3438 4.83984 23.2617 4.99609 23.1445 5.22266C23.0352 5.44922 22.8828 5.70703 22.6875 5.99609C22.5 6.27734 22.2734 6.57031 22.0078 6.875C21.7422 7.17969 21.4375 7.46094 21.0938 7.71875C20.75 7.96875 20.3633 8.17578 19.9336 8.33984C19.5117 8.50391 19.0508 8.58594 18.5508 8.58594C18.1055 8.58594 17.7109 8.50391 17.3672 8.33984C17.0234 8.18359 16.7305 7.96094 16.4883 7.67188C16.2461 7.375 16.0625 7.02734 15.9375 6.62891C15.8125 6.23047 15.75 5.78906 15.75 5.30469C15.75 4.83594 15.8164 4.39844 15.9492 3.99219C16.082 3.57812 16.2617 3.21875 16.4883 2.91406C16.7227 2.60938 16.9922 2.37109 17.2969 2.19922C17.6016 2.01953 17.9258 1.92969 18.2695 1.92969C18.5273 1.92969 18.7617 1.97656 18.9727 2.07031C19.1836 2.15625 19.3594 2.27344 19.5 2.42188C19.6484 2.57031 19.7617 2.73438 19.8398 2.91406C19.9258 3.09375 19.9688 3.27344 19.9688 3.45312C19.9688 3.625 19.9453 3.78516 19.8984 3.93359C19.8594 4.08203 19.8047 4.21484 19.7344 4.33203C19.6719 4.44141 19.5977 4.53125 19.5117 4.60156C19.4258 4.66406 19.3398 4.69531 19.2539 4.69531C19.1211 4.69531 19.0117 4.65234 18.9258 4.56641C18.8477 4.48047 18.8086 4.375 18.8086 4.25C18.8086 4.1875 18.8203 4.13281 18.8438 4.08594C18.875 4.03906 18.9062 3.99219 18.9375 3.94531C18.9766 3.89062 19.0078 3.82812 19.0312 3.75781C19.0625 3.67969 19.0781 3.58203 19.0781 3.46484C19.0781 3.30078 19 3.15234 18.8438 3.01953C18.6953 2.88672 18.5039 2.82031 18.2695 2.82031C18.0508 2.82031 17.8398 2.88672 17.6367 3.01953C17.4414 3.15234 17.2695 3.33203 17.1211 3.55859C16.9727 3.77734 16.8516 4.03906 16.7578 4.34375C16.6719 4.64062 16.6289 4.95703 16.6289 5.29297C16.6289 5.61328 16.668 5.91797 16.7461 6.20703C16.8242 6.49609 16.9414 6.75391 17.0977 6.98047C17.2539 7.19922 17.4492 7.375 17.6836 7.50781C17.9258 7.64062 18.2109 7.70703 18.5391 7.70703C18.9609 7.70703 19.3516 7.63281 19.7109 7.48438C20.0703 7.32812 20.3984 7.13281 20.6953 6.89844C20.9922 6.66406 21.2539 6.41016 21.4805 6.13672C21.707 5.85547 21.8984 5.59375 22.0547 5.35156C22.2188 5.10156 22.3438 4.88672 22.4297 4.70703C22.5234 4.51953 22.5781 4.40234 22.5938 4.35547C22.625 4.27734 22.6758 4.21875 22.7461 4.17969C22.8242 4.13281 22.9062 4.10938 22.9922 4.10938C23.125 4.10938 23.2305 4.15625 23.3086 4.25C23.3945 4.34375 23.4375 4.44922 23.4375 4.56641C23.4375 4.61328 23.4219 4.67578 23.3906 4.75391ZM24 6.71094C24.1641 6.9375 24.375 7.12109 24.6328 7.26172C24.8906 7.39453 25.207 7.46094 25.582 7.46094C25.9648 7.46094 26.3125 7.37109 26.625 7.19141C26.9375 7.00391 27.2227 6.76172 27.4805 6.46484C27.7383 6.16797 27.9688 5.83594 28.1719 5.46875C28.375 5.10156 28.5586 4.73438 28.7227 4.36719C28.7617 4.28125 28.8164 4.21875 28.8867 4.17969C28.957 4.13281 29.0352 4.10938 29.1211 4.10938C29.2539 4.10938 29.3594 4.15625 29.4375 4.25C29.5234 4.34375 29.5664 4.44531 29.5664 4.55469C29.5664 4.59375 29.5625 4.62891 29.5547 4.66016C29.5469 4.68359 29.5352 4.71094 29.5195 4.74219C28.9805 5.92969 28.3906 6.82422 27.75 7.42578C27.1172 8.02734 26.3984 8.33594 25.5938 8.35156C25.0781 8.35156 24.6328 8.25 24.2578 8.04688C23.8828 7.85156 23.5742 7.59766 23.332 7.28516C23.0898 6.96484 22.9102 6.60547 22.793 6.20703C22.6758 5.80859 22.6172 5.41016 22.6172 5.01172C22.6172 4.61328 22.6641 4.24609 22.7578 3.91016C22.8594 3.57422 23 3.28125 23.1797 3.03125C23.3672 2.78125 23.5859 2.58594 23.8359 2.44531C24.0938 2.30469 24.375 2.23438 24.6797 2.23438C24.8594 2.23438 25.0352 2.27344 25.207 2.35156C25.3867 2.42188 25.5469 2.52734 25.6875 2.66797C25.8281 2.80078 25.9414 2.96484 26.0273 3.16016C26.1133 3.35547 26.1562 3.57812 26.1562 3.82812C26.1562 4.14844 26.1016 4.44922 25.9922 4.73047C25.8828 5.01172 25.7305 5.27344 25.5352 5.51562C25.3477 5.75781 25.1211 5.98047 24.8555 6.18359C24.5898 6.38672 24.3047 6.5625 24 6.71094ZM23.6484 5.94922C23.8906 5.84766 24.1094 5.71875 24.3047 5.5625C24.5078 5.40625 24.6797 5.23438 24.8203 5.04688C24.9609 4.85938 25.0703 4.66406 25.1484 4.46094C25.2266 4.25 25.2656 4.03906 25.2656 3.82812C25.2656 3.59375 25.207 3.41797 25.0898 3.30078C24.9727 3.17578 24.8359 3.11328 24.6797 3.11328C24.4688 3.11328 24.2891 3.17188 24.1406 3.28906C23.9922 3.40625 23.8711 3.55859 23.7773 3.74609C23.6836 3.93359 23.6133 4.14453 23.5664 4.37891C23.5273 4.60547 23.5078 4.83203 23.5078 5.05859C23.5078 5.19922 23.5195 5.34766 23.543 5.50391C23.5742 5.66016 23.6094 5.80859 23.6484 5.94922ZM30.0352 3.66406C29.9883 3.78906 29.9297 3.92969 29.8594 4.08594C29.7969 4.24219 29.7227 4.40625 29.6367 4.57812C29.5664 4.71094 29.4922 4.81641 29.4141 4.89453C29.3438 4.96484 29.25 5 29.1328 5C29 5 28.8945 4.96094 28.8164 4.88281C28.7383 4.79688 28.6992 4.69922 28.6992 4.58984C28.6992 4.55078 28.7031 4.51953 28.7109 4.49609C28.7188 4.46484 28.7383 4.41797 28.7695 4.35547C28.9727 3.96484 29.1211 3.625 29.2148 3.33594C29.3164 3.03906 29.3984 2.73047 29.4609 2.41016C29.4062 2.23047 29.3672 2.07812 29.3438 1.95312C29.3203 1.82812 29.3086 1.69922 29.3086 1.56641C29.3086 1.30859 29.3633 1.10156 29.4727 0.945312C29.582 0.78125 29.7344 0.699219 29.9297 0.699219C30.1094 0.699219 30.25 0.777344 30.3516 0.933594C30.4609 1.08984 30.5156 1.28125 30.5156 1.50781C30.5156 1.63281 30.5039 1.75781 30.4805 1.88281C30.457 2.00781 30.4258 2.16406 30.3867 2.35156C30.5664 2.79688 30.7461 3.19141 30.9258 3.53516C31.1055 3.87891 31.2656 4.19531 31.4062 4.48438C31.5469 4.76562 31.6602 5.03125 31.7461 5.28125C31.8398 5.53125 31.8867 5.78125 31.8867 6.03125C31.8867 6.35938 31.8203 6.67188 31.6875 6.96875C31.5547 7.26562 31.3359 7.51562 31.0312 7.71875C31.0703 7.72656 31.1094 7.73047 31.1484 7.73047C31.1875 7.73047 31.2266 7.73047 31.2656 7.73047C31.7109 7.73047 32.1211 7.62891 32.4961 7.42578C32.8711 7.22266 33.207 6.96094 33.5039 6.64062C33.8086 6.3125 34.0781 5.95312 34.3125 5.5625C34.5469 5.16406 34.75 4.76953 34.9219 4.37891C35 4.19922 35.1094 4.10938 35.25 4.10938C35.3828 4.10938 35.4844 4.15625 35.5547 4.25C35.6328 4.34375 35.6719 4.44531 35.6719 4.55469C35.6719 4.61719 35.6602 4.67578 35.6367 4.73047C35.5508 4.94141 35.4375 5.18359 35.2969 5.45703C35.1641 5.72266 35 6 34.8047 6.28906C34.6172 6.57031 34.3984 6.84766 34.1484 7.12109C33.8984 7.39453 33.6172 7.64062 33.3047 7.85938C33 8.07031 32.6641 8.23828 32.2969 8.36328C31.9297 8.49609 31.5273 8.5625 31.0898 8.5625C30.5664 8.5625 30.0781 8.46875 29.625 8.28125C29.1797 8.10156 28.8164 7.80078 28.5352 7.37891C28.4883 7.30859 28.4648 7.23438 28.4648 7.15625C28.4648 7.03906 28.5078 6.9375 28.5938 6.85156C28.6875 6.75781 28.793 6.71094 28.9102 6.71094C29.0352 6.71094 29.1406 6.75391 29.2266 6.83984C29.2344 6.85547 29.2617 6.88281 29.3086 6.92188C29.3555 6.95312 29.4102 6.99219 29.4727 7.03906C29.543 7.07812 29.6211 7.11328 29.707 7.14453C29.8008 7.17578 29.8945 7.19141 29.9883 7.19141C30.1758 7.19141 30.332 7.15234 30.457 7.07422C30.5898 6.99609 30.6953 6.90234 30.7734 6.79297C30.8516 6.67578 30.9062 6.55469 30.9375 6.42969C30.9766 6.29688 30.9961 6.18359 30.9961 6.08984C30.9961 5.89453 30.9648 5.69922 30.9023 5.50391C30.8398 5.30859 30.7578 5.11328 30.6562 4.91797C30.5625 4.72266 30.457 4.52344 30.3398 4.32031C30.2305 4.10938 30.1289 3.89062 30.0352 3.66406ZM36.1289 3.66406C36.082 3.78906 36.0234 3.92969 35.9531 4.08594C35.8906 4.24219 35.8164 4.40625 35.7305 4.57812C35.6602 4.71094 35.5859 4.81641 35.5078 4.89453C35.4375 4.96484 35.3438 5 35.2266 5C35.0938 5 34.9883 4.96094 34.9102 4.88281C34.832 4.79688 34.793 4.69922 34.793 4.58984C34.793 4.55078 34.7969 4.51953 34.8047 4.49609C34.8125 4.46484 34.832 4.41797 34.8633 4.35547C35.0664 3.96484 35.2148 3.625 35.3086 3.33594C35.4102 3.03906 35.4922 2.73047 35.5547 2.41016C35.5 2.23047 35.4609 2.07812 35.4375 1.95312C35.4141 1.82812 35.4023 1.69922 35.4023 1.56641C35.4023 1.30859 35.457 1.10156 35.5664 0.945312C35.6758 0.78125 35.8281 0.699219 36.0234 0.699219C36.2031 0.699219 36.3438 0.777344 36.4453 0.933594C36.5547 1.08984 36.6094 1.28125 36.6094 1.50781C36.6094 1.63281 36.5977 1.75781 36.5742 1.88281C36.5508 2.00781 36.5195 2.16406 36.4805 2.35156C36.6602 2.79688 36.8398 3.19141 37.0195 3.53516C37.1992 3.87891 37.3594 4.19531 37.5 4.48438C37.6406 4.76562 37.7539 5.03125 37.8398 5.28125C37.9336 5.53125 37.9805 5.78125 37.9805 6.03125C37.9805 6.35938 37.9141 6.67188 37.7812 6.96875C37.6484 7.26562 37.4297 7.51562 37.125 7.71875C37.1641 7.72656 37.2031 7.73047 37.2422 7.73047C37.2812 7.73047 37.3203 7.73047 37.3594 7.73047C37.8047 7.73047 38.2148 7.62891 38.5898 7.42578C38.9648 7.22266 39.3008 6.96094 39.5977 6.64062C39.9023 6.3125 40.1719 5.95312 40.4062 5.5625C40.6406 5.16406 40.8438 4.76953 41.0156 4.37891C41.0938 4.19922 41.2031 4.10938 41.3438 4.10938C41.4766 4.10938 41.5781 4.15625 41.6484 4.25C41.7266 4.34375 41.7656 4.44531 41.7656 4.55469C41.7656 4.61719 41.7539 4.67578 41.7305 4.73047C41.6445 4.94141 41.5312 5.18359 41.3906 5.45703C41.2578 5.72266 41.0938 6 40.8984 6.28906C40.7109 6.57031 40.4922 6.84766 40.2422 7.12109C39.9922 7.39453 39.7109 7.64062 39.3984 7.85938C39.0938 8.07031 38.7578 8.23828 38.3906 8.36328C38.0234 8.49609 37.6211 8.5625 37.1836 8.5625C36.6602 8.5625 36.1719 8.46875 35.7188 8.28125C35.2734 8.10156 34.9102 7.80078 34.6289 7.37891C34.582 7.30859 34.5586 7.23438 34.5586 7.15625C34.5586 7.03906 34.6016 6.9375 34.6875 6.85156C34.7812 6.75781 34.8867 6.71094 35.0039 6.71094C35.1289 6.71094 35.2344 6.75391 35.3203 6.83984C35.3281 6.85547 35.3555 6.88281 35.4023 6.92188C35.4492 6.95312 35.5039 6.99219 35.5664 7.03906C35.6367 7.07812 35.7148 7.11328 35.8008 7.14453C35.8945 7.17578 35.9883 7.19141 36.082 7.19141C36.2695 7.19141 36.4258 7.15234 36.5508 7.07422C36.6836 6.99609 36.7891 6.90234 36.8672 6.79297C36.9453 6.67578 37 6.55469 37.0312 6.42969C37.0703 6.29688 37.0898 6.18359 37.0898 6.08984C37.0898 5.89453 37.0586 5.69922 36.9961 5.50391C36.9336 5.30859 36.8516 5.11328 36.75 4.91797C36.6562 4.72266 36.5508 4.52344 36.4336 4.32031C36.3242 4.10938 36.2227 3.89062 36.1289 3.66406Z" fill="black"/>
</svg>
