<svg width="195" height="27" viewBox="0 0 195 27" fill="none" xmlns="http://www.w3.org/2000/svg">
<path d="M21.1875 3.35938C21.1875 3.36979 21.1875 3.38021 21.1875 3.39062C21.1979 3.40104 21.2031 3.41146 21.2031 3.42187C21.2031 3.51562 21.1563 3.5625 21.0625 3.5625C20.9896 3.5625 20.9479 3.53125 20.9375 3.46875C20.8229 3.21875 20.6719 3.01042 20.4844 2.84375C20.2969 2.67708 20.0833 2.54167 19.8438 2.4375C19.6042 2.33333 19.3438 2.26042 19.0625 2.21875C18.7917 2.17708 18.5156 2.15625 18.2344 2.15625C17.5052 2.15625 16.8229 2.27083 16.1875 2.5C15.5521 2.72917 14.9688 3.04167 14.4375 3.4375C15.0729 3.71875 15.6042 4.0625 16.0312 4.46875C16.4583 4.875 16.8021 5.32292 17.0625 5.8125C17.3333 6.30208 17.526 6.81771 17.6406 7.35937C17.7552 7.90104 17.8125 8.44271 17.8125 8.98438C17.8125 9.49479 17.7604 10.0573 17.6563 10.6719C17.5521 11.2865 17.3906 11.9062 17.1719 12.5312C16.9531 13.1458 16.6719 13.75 16.3281 14.3437C15.9948 14.9271 15.5938 15.4479 15.125 15.9062C14.6563 16.3542 14.1198 16.7188 13.5156 17C12.9115 17.2708 12.2344 17.4063 11.4844 17.4063C11.1198 17.4063 10.7448 17.3542 10.3594 17.25C9.98438 17.1458 9.64062 16.9844 9.32812 16.7656C9.01562 16.5469 8.75521 16.2656 8.54688 15.9219C8.34896 15.5781 8.25 15.1615 8.25 14.6719C8.25 14.4635 8.28125 14.25 8.34375 14.0312C8.40625 13.8021 8.51562 13.5937 8.67188 13.4062C8.82812 13.2187 9.03125 13.0677 9.28125 12.9531C9.54167 12.8281 9.85938 12.7656 10.2344 12.7656C10.2656 12.7656 10.3854 12.776 10.5938 12.7969C10.8125 12.8177 11.0417 12.8542 11.2813 12.9062C11.5313 12.9479 11.7552 13.0052 11.9531 13.0781C12.1615 13.151 12.2656 13.2396 12.2656 13.3438C12.2656 13.375 12.25 13.4062 12.2188 13.4375C12.1875 13.4688 12.151 13.4844 12.1094 13.4844C12.0885 13.4844 12.0729 13.4792 12.0625 13.4687C11.6771 13.3125 11.3333 13.2031 11.0313 13.1406C10.7396 13.0781 10.474 13.0469 10.2344 13.0469C9.92188 13.0469 9.65625 13.099 9.4375 13.2031C9.21875 13.2969 9.04167 13.4219 8.90625 13.5781C8.78125 13.7344 8.6875 13.9115 8.625 14.1094C8.5625 14.3073 8.53125 14.5104 8.53125 14.7187C8.53125 15.125 8.61979 15.4792 8.79688 15.7812C8.98438 16.0833 9.21875 16.3333 9.5 16.5312C9.78125 16.7292 10.0938 16.8802 10.4375 16.9844C10.7917 17.0781 11.1406 17.125 11.4844 17.125C12.151 17.125 12.7604 17.0052 13.3125 16.7656C13.875 16.526 14.3802 16.2031 14.8281 15.7969C15.276 15.3906 15.6667 14.9219 16 14.3906C16.3438 13.849 16.625 13.276 16.8438 12.6719C17.0729 12.0677 17.2448 11.4531 17.3594 10.8281C17.474 10.1927 17.5312 9.57812 17.5312 8.98438C17.5312 8.44271 17.474 7.91146 17.3594 7.39062C17.2448 6.85938 17.0573 6.36458 16.7969 5.90625C16.5365 5.4375 16.1927 5.01042 15.7656 4.625C15.3385 4.22917 14.8073 3.89583 14.1719 3.625C13.5365 4.11458 12.9427 4.6875 12.3906 5.34375C11.849 5.98958 11.3177 6.69792 10.7969 7.46875C11.2969 7.46875 11.7813 7.40104 12.25 7.26562C12.7188 7.13021 13.1719 6.90625 13.6094 6.59375C13.6823 6.54167 13.776 6.46354 13.8906 6.35938C14.0156 6.24479 14.1406 6.13021 14.2656 6.01562C14.3906 5.90104 14.5 5.80208 14.5938 5.71875C14.6979 5.63542 14.7656 5.59375 14.7969 5.59375C14.8906 5.59375 14.9375 5.64062 14.9375 5.73437C14.9375 5.72396 14.9375 5.72917 14.9375 5.75C14.9479 5.76042 14.9271 5.80729 14.875 5.89062C14.8229 5.96354 14.7135 6.07292 14.5469 6.21875C14.3906 6.36458 14.151 6.55208 13.8281 6.78125C13.401 7.08333 12.9479 7.32292 12.4688 7.5C11.9896 7.66667 11.4896 7.75 10.9688 7.75C10.9062 7.75 10.8438 7.75 10.7812 7.75C10.7292 7.75 10.6719 7.74479 10.6094 7.73437C10.3802 8.06771 10.151 8.41146 9.92188 8.76562C9.69271 9.11979 9.46875 9.47396 9.25 9.82812C8.82292 10.5052 8.42708 11.1771 8.0625 11.8438C7.69792 12.5104 7.34375 13.151 7 13.7656C6.66667 14.3698 6.33333 14.9323 6 15.4531C5.66667 15.9635 5.31771 16.4115 4.95313 16.7969C4.59896 17.1719 4.21354 17.4635 3.79688 17.6719C3.39062 17.8906 2.94271 18 2.45312 18C2.25521 18 2.05208 17.9635 1.84375 17.8906C1.625 17.8177 1.42708 17.7135 1.25 17.5781C1.0625 17.4531 0.911458 17.3021 0.796875 17.125C0.682292 16.9583 0.625 16.776 0.625 16.5781C0.625 16.4844 0.671875 16.4375 0.765625 16.4375C0.838542 16.4375 0.885417 16.4688 0.90625 16.5312C0.989583 16.9062 1.17708 17.1979 1.46875 17.4063C1.76042 17.6146 2.08854 17.7188 2.45312 17.7188C3.14063 17.7188 3.74479 17.4948 4.26562 17.0469C4.78646 16.599 5.29167 16 5.78125 15.25C6.27083 14.5 6.76562 13.6458 7.26562 12.6875C7.77604 11.7188 8.35938 10.7188 9.01563 9.6875C9.22396 9.35417 9.4375 9.02083 9.65625 8.6875C9.875 8.35417 10.0885 8.02083 10.2969 7.6875C9.96354 7.63542 9.65104 7.54687 9.35938 7.42187C9.07813 7.28646 8.82813 7.125 8.60938 6.9375C8.40104 6.73958 8.23438 6.52083 8.10938 6.28125C7.98438 6.03125 7.92188 5.76562 7.92188 5.48437C7.92188 5.06771 8.0625 4.65104 8.34375 4.23437C8.70833 3.68229 9.16146 3.29688 9.70312 3.07812C10.2448 2.85937 10.8229 2.75 11.4375 2.75C11.8958 2.75 12.349 2.80208 12.7969 2.90625C13.2552 3 13.6979 3.13021 14.125 3.29687C14.7396 2.85937 15.3802 2.51562 16.0469 2.26562C16.7135 2.00521 17.4427 1.875 18.2344 1.875C18.5156 1.875 18.8021 1.90104 19.0938 1.95312C19.3958 1.99479 19.6771 2.07292 19.9375 2.1875C20.2083 2.29167 20.4531 2.44271 20.6719 2.64062C20.8906 2.82812 21.0625 3.06771 21.1875 3.35938ZM11.9219 5.48437C12.224 5.10937 12.5365 4.75521 12.8594 4.42187C13.1823 4.08854 13.5208 3.78125 13.875 3.5C13.5 3.36458 13.099 3.25521 12.6719 3.17188C12.2552 3.07812 11.8385 3.03125 11.4219 3.03125C11.0365 3.03125 10.651 3.09375 10.2656 3.21875C9.89062 3.33333 9.54688 3.5 9.23438 3.71875C8.93229 3.9375 8.6875 4.19271 8.5 4.48438C8.3125 4.77604 8.21875 5.09375 8.21875 5.4375C8.21875 5.91667 8.42188 6.33854 8.82813 6.70312C9.24479 7.06771 9.79688 7.30729 10.4844 7.42187C10.9531 6.71354 11.4323 6.06771 11.9219 5.48437ZM19.3906 16.7969C19.026 16.599 18.7708 16.3385 18.625 16.0156C18.4687 15.6927 18.3906 15.3385 18.3906 14.9531C18.3906 14.651 18.4323 14.3385 18.5156 14.0156C18.5885 13.6927 18.6927 13.3854 18.8281 13.0937C18.9635 12.7917 19.1146 12.5156 19.2813 12.2656C19.4479 12.0052 19.6198 11.7812 19.7969 11.5937C19.6302 11.5104 19.5052 11.4479 19.4219 11.4062C19.349 11.3646 19.3021 11.3333 19.2813 11.3125C19.2604 11.2812 19.25 11.2604 19.25 11.25C19.2604 11.2396 19.2656 11.224 19.2656 11.2031C19.2656 11.1094 19.3125 11.0625 19.4062 11.0625C19.4479 11.0625 19.4635 11.0625 19.4531 11.0625C19.4427 11.0521 19.4427 11.0573 19.4531 11.0781C19.4635 11.0885 19.5 11.1146 19.5625 11.1562C19.6354 11.1979 19.7813 11.2708 20 11.375C20.875 10.4375 21.7865 9.69271 22.7344 9.14062C23.6927 8.58854 24.6146 8.3125 25.5 8.3125C25.8021 8.3125 26.0938 8.35417 26.375 8.4375C26.6563 8.52083 26.9063 8.64062 27.125 8.79688C27.3438 8.94271 27.5156 9.125 27.6406 9.34375C27.776 9.55208 27.8438 9.78646 27.8438 10.0469C27.8438 10.4844 27.7083 10.8698 27.4375 11.2031C27.1771 11.5365 26.849 11.8125 26.4531 12.0312C26.0677 12.25 25.651 12.4167 25.2031 12.5312C24.7552 12.6354 24.3438 12.6875 23.9688 12.6875C23.5104 12.6875 23.0729 12.651 22.6563 12.5781C22.2396 12.4948 21.8594 12.4062 21.5156 12.3125C21.1823 12.2083 20.8906 12.1042 20.6406 12C20.3906 11.8854 20.1979 11.7969 20.0625 11.7344C19.9062 11.8802 19.7448 12.0781 19.5781 12.3281C19.4115 12.5677 19.2604 12.8333 19.125 13.125C19 13.4062 18.8906 13.7083 18.7969 14.0312C18.7135 14.3437 18.6719 14.651 18.6719 14.9531C18.6719 15.5469 18.875 16.0208 19.2813 16.375C19.6979 16.7292 20.3385 16.9062 21.2031 16.9062C21.5365 16.9062 21.875 16.8854 22.2188 16.8437C22.5625 16.7917 22.8906 16.7344 23.2031 16.6719C23.5156 16.599 23.7969 16.526 24.0469 16.4531C24.2969 16.3698 24.5 16.2969 24.6562 16.2344C25.0729 16.0677 25.4792 15.8906 25.875 15.7031C26.2812 15.5052 26.6875 15.2865 27.0938 15.0469C27.5104 14.8073 27.9375 14.5312 28.375 14.2187C28.8125 13.8958 29.2813 13.5208 29.7813 13.0937C29.8229 13.0729 29.8542 13.0625 29.875 13.0625C29.9063 13.0625 29.9375 13.0729 29.9688 13.0937C30 13.1146 30.0156 13.151 30.0156 13.2031C30.0156 13.2448 30 13.2812 29.9688 13.3125C29.4583 13.75 28.9792 14.1302 28.5313 14.4531C28.0833 14.7656 27.651 15.0469 27.2344 15.2969C26.8177 15.5365 26.4063 15.75 26 15.9375C25.5938 16.125 25.1771 16.3073 24.75 16.4844C24.5208 16.5677 24.2656 16.651 23.9844 16.7344C23.7031 16.8177 23.4063 16.8906 23.0938 16.9531C22.7917 17.0156 22.4792 17.0677 22.1563 17.1094C21.8333 17.151 21.5156 17.1719 21.2031 17.1719C20.8698 17.1719 20.5469 17.1406 20.2344 17.0781C19.9219 17.026 19.6406 16.9323 19.3906 16.7969ZM20.6719 11.7031C20.8385 11.776 21.0365 11.8542 21.2656 11.9375C21.5052 12.0208 21.7656 12.099 22.0469 12.1719C22.3281 12.2344 22.6302 12.2917 22.9531 12.3437C23.276 12.3854 23.6042 12.4062 23.9375 12.4062C24.3646 12.4062 24.7917 12.3438 25.2188 12.2188C25.6458 12.0938 26.0313 11.9271 26.375 11.7187C26.7188 11.5104 27 11.2656 27.2188 10.9844C27.4375 10.6927 27.5469 10.3906 27.5469 10.0781C27.5469 9.85937 27.4896 9.66146 27.375 9.48437C27.2708 9.29687 27.125 9.13542 26.9375 9C26.75 8.86458 26.5313 8.76042 26.2813 8.6875C26.0417 8.61458 25.7917 8.57812 25.5313 8.57812C25.1979 8.57812 24.8333 8.625 24.4375 8.71875C24.0521 8.8125 23.6354 8.97396 23.1875 9.20312C22.75 9.42187 22.2813 9.71875 21.7813 10.0937C21.2917 10.4687 20.7812 10.9427 20.25 11.5156L20.6719 11.7031ZM30.6094 17.1406C30.3073 17.1406 30.0521 17.099 29.8438 17.0156C29.6354 16.9323 29.4688 16.8229 29.3438 16.6875C29.2083 16.5417 29.1094 16.3802 29.0469 16.2031C28.9844 16.0156 28.9531 15.8281 28.9531 15.6406C28.9531 15.4219 28.974 15.2344 29.0156 15.0781C29.0573 14.9115 29.0833 14.8177 29.0937 14.7969C29.2917 14.2448 29.5417 13.6615 29.8438 13.0469C30.1563 12.4219 30.4896 11.8021 30.8438 11.1875C31.1979 10.5625 31.5573 9.95833 31.9219 9.375C32.2969 8.78125 32.6458 8.23958 32.9688 7.75C33.3125 7.21875 33.6406 6.72917 33.9531 6.28125C34.276 5.83333 34.5573 5.44792 34.7969 5.125C35.0469 4.79167 35.2448 4.53125 35.3906 4.34375C35.5365 4.14583 35.6094 4.04687 35.6094 4.04687C35.6094 4.03646 35.7083 3.91667 35.9062 3.6875C36.1146 3.45833 36.3698 3.20312 36.6719 2.92187C36.974 2.63021 37.2969 2.34375 37.6406 2.0625C37.9948 1.78125 38.3229 1.57812 38.625 1.45312C38.9167 1.32812 39.1771 1.26562 39.4063 1.26562C39.75 1.26562 40.0156 1.38021 40.2031 1.60937C40.401 1.82812 40.5 2.09896 40.5 2.42188C40.5 2.64063 40.4583 2.88021 40.375 3.14062C40.2917 3.40104 40.1823 3.66146 40.0469 3.92188C39.9219 4.18229 39.776 4.4375 39.6094 4.6875C39.4531 4.9375 39.2969 5.17187 39.1406 5.39062C38.6719 6.03646 38.1771 6.64062 37.6563 7.20312C37.1458 7.75521 36.5469 8.32812 35.8594 8.92187C35.1719 9.50521 34.3646 10.1354 33.4375 10.8125C32.5208 11.4792 31.4219 12.25 30.1406 13.125C29.9948 13.4271 29.8542 13.7292 29.7188 14.0312C29.5938 14.3229 29.474 14.6146 29.3594 14.9062C29.3385 14.9687 29.3177 15.0417 29.2969 15.125C29.276 15.1979 29.2604 15.2812 29.25 15.375C29.2396 15.4583 29.2344 15.5469 29.2344 15.6406C29.2344 16.0573 29.375 16.3698 29.6562 16.5781C29.9271 16.776 30.2656 16.875 30.6719 16.875C30.9948 16.875 31.3385 16.8177 31.7031 16.7031C32.3594 16.5052 32.9583 16.2969 33.5 16.0781C34.0521 15.8594 34.5729 15.6198 35.0625 15.3594C35.5625 15.0885 36.0469 14.7969 36.5156 14.4844C36.9948 14.1615 37.4896 13.8021 38 13.4062C38.0417 13.3854 38.0729 13.375 38.0938 13.375C38.1875 13.375 38.2344 13.4219 38.2344 13.5156C38.2344 13.5781 38.2188 13.6146 38.1875 13.625C37.6667 14.0208 37.1615 14.3854 36.6719 14.7187C36.1927 15.0417 35.6979 15.3385 35.1875 15.6094C34.6875 15.8802 34.1563 16.1302 33.5938 16.3594C33.0417 16.5885 32.4323 16.7969 31.7656 16.9844C31.5573 17.0469 31.3542 17.0885 31.1563 17.1094C30.9583 17.1302 30.776 17.1406 30.6094 17.1406ZM35.8281 4.21875C35.8073 4.23958 35.7083 4.36458 35.5312 4.59375C35.3542 4.8125 35.125 5.11458 34.8438 5.5C34.5729 5.88542 34.2552 6.34375 33.8906 6.875C33.526 7.39583 33.1458 7.96354 32.75 8.57812C32.3646 9.19271 31.9688 9.84375 31.5625 10.5312C31.1563 11.2083 30.7708 11.901 30.4063 12.6094C31.2188 12.0469 31.9479 11.5365 32.5938 11.0781C33.25 10.6094 33.8385 10.1719 34.3594 9.76562C34.8906 9.34896 35.3698 8.95833 35.7969 8.59375C36.224 8.22917 36.6146 7.86458 36.9688 7.5C37.3333 7.13542 37.6719 6.77083 37.9844 6.40625C38.3073 6.03125 38.6198 5.63542 38.9219 5.21875C39.349 4.625 39.6719 4.08854 39.8906 3.60937C40.1094 3.13021 40.2188 2.72917 40.2188 2.40625C40.2188 2.14583 40.1406 1.9375 39.9844 1.78125C39.8385 1.625 39.6406 1.54687 39.3906 1.54687C39.151 1.54687 38.8958 1.61458 38.625 1.75C38.3646 1.875 38.1042 2.03646 37.8438 2.23438C37.5833 2.43229 37.3333 2.64583 37.0938 2.875C36.8542 3.10417 36.6406 3.31771 36.4531 3.51562C36.2656 3.71354 36.1146 3.88021 36 4.01562C35.8854 4.15104 35.8281 4.21875 35.8281 4.21875ZM38.5391 16.9375C38.362 16.9375 38.1849 16.9271 38.0078 16.9062C37.8307 16.8854 37.6745 16.8385 37.5391 16.7656C37.3932 16.6823 37.2786 16.5677 37.1953 16.4219C37.112 16.276 37.0703 16.0833 37.0703 15.8437C37.0703 15.5312 37.1432 15.1979 37.2891 14.8438C37.4245 14.4792 37.6016 14.1146 37.8203 13.75C38.0286 13.3854 38.2526 13.0312 38.4922 12.6875C38.7318 12.3438 38.9505 12.0312 39.1484 11.75C39.4297 11.3438 39.7057 10.9583 39.9766 10.5937C40.2578 10.2292 40.5078 9.90625 40.7266 9.625C40.9557 9.34375 41.138 9.11979 41.2734 8.95312C41.4193 8.78646 41.4922 8.70312 41.4922 8.70312C41.5026 8.67188 41.5391 8.65625 41.6016 8.65625C41.6953 8.65625 41.7422 8.70312 41.7422 8.79688C41.7422 8.81771 41.7318 8.84896 41.7109 8.89062C41.7109 8.89062 41.638 8.97396 41.4922 9.14062C41.3568 9.30729 41.1745 9.53125 40.9453 9.8125C40.7266 10.0833 40.4766 10.401 40.1953 10.7656C39.9245 11.1302 39.6484 11.5104 39.3672 11.9062C39.1797 12.1667 38.9714 12.4635 38.7422 12.7969C38.513 13.1302 38.2943 13.474 38.0859 13.8281C37.8776 14.1823 37.7057 14.5365 37.5703 14.8906C37.4245 15.2344 37.3516 15.5521 37.3516 15.8437C37.3516 16.0312 37.388 16.1823 37.4609 16.2969C37.5339 16.401 37.6276 16.4792 37.7422 16.5312C37.8568 16.5833 37.9818 16.6198 38.1172 16.6406C38.263 16.651 38.4036 16.6562 38.5391 16.6562C38.987 16.6562 39.4766 16.5677 40.0078 16.3906C40.5391 16.2031 41.0703 15.9635 41.6016 15.6719C42.1432 15.3698 42.6745 15.0312 43.1953 14.6562C43.7266 14.2812 44.2161 13.8958 44.6641 13.5C44.7057 13.4792 44.737 13.4687 44.7578 13.4687C44.8516 13.4687 44.8984 13.5156 44.8984 13.6094C44.8984 13.651 44.8828 13.6875 44.8516 13.7188C44.3828 14.1146 43.888 14.5052 43.3672 14.8906C42.8568 15.276 42.3307 15.6198 41.7891 15.9219C41.2474 16.224 40.7005 16.4687 40.1484 16.6562C39.6068 16.8437 39.0703 16.9375 38.5391 16.9375ZM43.7578 6.70312C43.7578 6.91146 43.6849 7.09375 43.5391 7.25C43.3932 7.39583 43.2161 7.46875 43.0078 7.46875C42.7995 7.46875 42.6172 7.39583 42.4609 7.25C42.3151 7.09375 42.2422 6.91146 42.2422 6.70312C42.2422 6.49479 42.3151 6.31771 42.4609 6.17188C42.6172 6.02604 42.7995 5.95312 43.0078 5.95312C43.2161 5.95312 43.3932 6.02604 43.5391 6.17188C43.6849 6.31771 43.7578 6.49479 43.7578 6.70312ZM43.9219 15.7187C43.9219 15.4896 43.9792 15.2135 44.0937 14.8906C44.2083 14.5677 44.349 14.2292 44.5156 13.875C44.6927 13.5104 44.8854 13.1458 45.0938 12.7812C45.3021 12.4062 45.5052 12.0573 45.7031 11.7344C45.724 11.7031 45.7865 11.599 45.8906 11.4219C46.0052 11.2344 46.1198 11.0208 46.2344 10.7812C46.3594 10.5312 46.4688 10.2812 46.5625 10.0312C46.6667 9.77083 46.7188 9.55208 46.7188 9.375C46.7188 9.21875 46.6719 9.11458 46.5781 9.0625C46.4948 9.01042 46.401 8.98438 46.2969 8.98438C46.151 8.98438 46.0052 9.03125 45.8594 9.125C45.7135 9.21875 45.5833 9.32292 45.4688 9.4375C45.3646 9.54167 45.276 9.64583 45.2031 9.75C45.1302 9.84375 45.0938 9.89062 45.0938 9.89062C45.0833 9.93229 45.0469 9.95312 44.9844 9.95312C44.8906 9.95312 44.8438 9.90104 44.8438 9.79687C44.8438 9.80729 44.8438 9.80208 44.8438 9.78125C44.8542 9.76042 44.875 9.72396 44.9062 9.67187C44.9375 9.60937 44.9948 9.53125 45.0781 9.4375C45.1615 9.34375 45.2813 9.22396 45.4375 9.07812C45.5938 8.93229 45.7448 8.83333 45.8906 8.78125C46.0469 8.72917 46.1823 8.70312 46.2969 8.70312C46.5365 8.70312 46.7135 8.77604 46.8281 8.92187C46.9531 9.05729 47.0156 9.21354 47.0156 9.39062C47.0156 9.56771 46.974 9.76562 46.8906 9.98437C46.8177 10.2031 46.724 10.4271 46.6094 10.6562C46.474 10.9479 46.3333 11.2188 46.1875 11.4688C46.0417 11.7083 45.8802 11.974 45.7031 12.2656C45.5365 12.5469 45.3542 12.8698 45.1563 13.2344C44.9583 13.5885 44.7448 14.0208 44.5156 14.5312C44.401 14.7604 44.3229 14.9792 44.2812 15.1875C44.2292 15.3854 44.2031 15.5677 44.2031 15.7344C44.2031 15.9427 44.2448 16.1198 44.3281 16.2656C44.401 16.4115 44.5 16.5312 44.625 16.625C44.75 16.7083 44.8906 16.7708 45.0469 16.8125C45.2031 16.8542 45.3594 16.875 45.5156 16.875C45.5677 16.875 45.6198 16.875 45.6719 16.875C45.724 16.8646 45.776 16.8542 45.8281 16.8437C46.3385 16.7604 46.8281 16.6198 47.2969 16.4219C47.7656 16.224 48.2031 15.9948 48.6094 15.7344C49.0156 15.4635 49.3854 15.1823 49.7188 14.8906C50.0625 14.599 50.3594 14.3177 50.6094 14.0469C51.1302 13.4948 51.5833 12.9271 51.9688 12.3437C52.3646 11.75 52.7031 11.1354 52.9844 10.5C52.5573 10.1354 52.3438 9.61979 52.3438 8.95312C52.3438 8.68229 52.4167 8.46354 52.5625 8.29687C52.7083 8.13021 52.901 8.04688 53.1406 8.04688C53.349 8.04688 53.5052 8.125 53.6094 8.28125C53.7135 8.42708 53.7656 8.60417 53.7656 8.8125C53.7656 9.21875 53.6198 9.75 53.3281 10.4062C53.5052 10.5312 53.724 10.6354 53.9844 10.7188C54.2552 10.8021 54.5417 10.8437 54.8438 10.8437C55.1979 10.8437 55.5469 10.7865 55.8906 10.6719C56.2344 10.5573 56.5521 10.4219 56.8438 10.2656C57.1458 10.099 57.4115 9.92708 57.6406 9.75C57.8802 9.57292 58.0729 9.42187 58.2188 9.29687C58.25 9.26562 58.2812 9.25 58.3125 9.25C58.3646 9.25 58.401 9.26562 58.4219 9.29687C58.4427 9.32812 58.4531 9.35937 58.4531 9.39062C58.4531 9.44271 58.3906 9.52604 58.2656 9.64062C58.1406 9.75521 57.9896 9.875 57.8125 10C57.6354 10.125 57.4427 10.25 57.2344 10.375C57.0365 10.5 56.8542 10.599 56.6875 10.6719C56.3646 10.8281 56.0469 10.9427 55.7344 11.0156C55.4323 11.0885 55.1406 11.125 54.8594 11.125C54.5469 11.125 54.2448 11.0833 53.9531 11C53.6615 10.9167 53.4167 10.8073 53.2188 10.6719C52.8333 11.5052 52.349 12.3125 51.7656 13.0937C51.1927 13.8646 50.5625 14.5521 49.875 15.1562C49.1979 15.75 48.4844 16.2292 47.7344 16.5937C46.9844 16.9583 46.25 17.1406 45.5313 17.1406C45.0417 17.1406 44.651 17.0156 44.3594 16.7656C44.0677 16.5156 43.9219 16.1667 43.9219 15.7187ZM52.8438 8.40625C52.7708 8.45833 52.7188 8.53646 52.6875 8.64062C52.6562 8.74479 52.6406 8.86979 52.6406 9.01562C52.6406 9.50521 52.7969 9.90625 53.1094 10.2187C53.2135 9.96875 53.3021 9.71875 53.375 9.46875C53.4479 9.21875 53.4844 9 53.4844 8.8125C53.4844 8.47917 53.3594 8.3125 53.1094 8.3125C53.026 8.3125 52.9375 8.34375 52.8438 8.40625ZM57.6641 16.7969C57.2995 16.599 57.0443 16.3385 56.8984 16.0156C56.7422 15.6927 56.6641 15.3385 56.6641 14.9531C56.6641 14.651 56.7057 14.3385 56.7891 14.0156C56.862 13.6927 56.9661 13.3854 57.1016 13.0937C57.237 12.7917 57.388 12.5156 57.5547 12.2656C57.7214 12.0052 57.8932 11.7812 58.0703 11.5937C57.9036 11.5104 57.7786 11.4479 57.6953 11.4062C57.6224 11.3646 57.5755 11.3333 57.5547 11.3125C57.5339 11.2812 57.5234 11.2604 57.5234 11.25C57.5339 11.2396 57.5391 11.224 57.5391 11.2031C57.5391 11.1094 57.5859 11.0625 57.6797 11.0625C57.7214 11.0625 57.737 11.0625 57.7266 11.0625C57.7161 11.0521 57.7161 11.0573 57.7266 11.0781C57.737 11.0885 57.7734 11.1146 57.8359 11.1562C57.9089 11.1979 58.0547 11.2708 58.2734 11.375C59.1484 10.4375 60.0599 9.69271 61.0078 9.14062C61.9661 8.58854 62.888 8.3125 63.7734 8.3125C64.0755 8.3125 64.3672 8.35417 64.6484 8.4375C64.9297 8.52083 65.1797 8.64062 65.3984 8.79688C65.6172 8.94271 65.7891 9.125 65.9141 9.34375C66.0495 9.55208 66.1172 9.78646 66.1172 10.0469C66.1172 10.4844 65.9818 10.8698 65.7109 11.2031C65.4505 11.5365 65.1224 11.8125 64.7266 12.0312C64.3411 12.25 63.9245 12.4167 63.4766 12.5312C63.0286 12.6354 62.6172 12.6875 62.2422 12.6875C61.7839 12.6875 61.3464 12.651 60.9297 12.5781C60.513 12.4948 60.1328 12.4062 59.7891 12.3125C59.4557 12.2083 59.1641 12.1042 58.9141 12C58.6641 11.8854 58.4714 11.7969 58.3359 11.7344C58.1797 11.8802 58.0182 12.0781 57.8516 12.3281C57.6849 12.5677 57.5339 12.8333 57.3984 13.125C57.2734 13.4062 57.1641 13.7083 57.0703 14.0312C56.987 14.3437 56.9453 14.651 56.9453 14.9531C56.9453 15.5469 57.1484 16.0208 57.5547 16.375C57.9714 16.7292 58.612 16.9062 59.4766 16.9062C59.8099 16.9062 60.1484 16.8854 60.4922 16.8437C60.8359 16.7917 61.1641 16.7344 61.4766 16.6719C61.7891 16.599 62.0703 16.526 62.3203 16.4531C62.5703 16.3698 62.7734 16.2969 62.9297 16.2344C63.3464 16.0677 63.7526 15.8906 64.1484 15.7031C64.5547 15.5052 64.9609 15.2865 65.3672 15.0469C65.7839 14.8073 66.2109 14.5312 66.6484 14.2187C67.0859 13.8958 67.5547 13.5208 68.0547 13.0937C68.0964 13.0729 68.1276 13.0625 68.1484 13.0625C68.1797 13.0625 68.2109 13.0729 68.2422 13.0937C68.2734 13.1146 68.2891 13.151 68.2891 13.2031C68.2891 13.2448 68.2734 13.2812 68.2422 13.3125C67.7318 13.75 67.2526 14.1302 66.8047 14.4531C66.3568 14.7656 65.9245 15.0469 65.5078 15.2969C65.0911 15.5365 64.6797 15.75 64.2734 15.9375C63.8672 16.125 63.4505 16.3073 63.0234 16.4844C62.7943 16.5677 62.5391 16.651 62.2578 16.7344C61.9766 16.8177 61.6797 16.8906 61.3672 16.9531C61.0651 17.0156 60.7526 17.0677 60.4297 17.1094C60.1068 17.151 59.7891 17.1719 59.4766 17.1719C59.1432 17.1719 58.8203 17.1406 58.5078 17.0781C58.1953 17.026 57.9141 16.9323 57.6641 16.7969ZM58.9453 11.7031C59.112 11.776 59.3099 11.8542 59.5391 11.9375C59.7786 12.0208 60.0391 12.099 60.3203 12.1719C60.6016 12.2344 60.9036 12.2917 61.2266 12.3437C61.5495 12.3854 61.8776 12.4062 62.2109 12.4062C62.638 12.4062 63.0651 12.3438 63.4922 12.2188C63.9193 12.0938 64.3047 11.9271 64.6484 11.7187C64.9922 11.5104 65.2734 11.2656 65.4922 10.9844C65.7109 10.6927 65.8203 10.3906 65.8203 10.0781C65.8203 9.85937 65.763 9.66146 65.6484 9.48437C65.5443 9.29687 65.3984 9.13542 65.2109 9C65.0234 8.86458 64.8047 8.76042 64.5547 8.6875C64.3151 8.61458 64.0651 8.57812 63.8047 8.57812C63.4714 8.57812 63.1068 8.625 62.7109 8.71875C62.3255 8.8125 61.9089 8.97396 61.4609 9.20312C61.0234 9.42187 60.5547 9.71875 60.0547 10.0937C59.5651 10.4687 59.0547 10.9427 58.5234 11.5156L58.9453 11.7031ZM71.7344 17.5156C71.3177 17.4948 71.0052 17.3698 70.7969 17.1406C70.5885 16.9115 70.4844 16.6146 70.4844 16.25C70.4844 15.8542 70.6094 15.401 70.8594 14.8906C71.1094 14.3802 71.4063 13.8646 71.75 13.3438C72.0938 12.8229 72.4479 12.3281 72.8125 11.8594C73.1771 11.3802 73.474 10.9792 73.7031 10.6562C73.7552 10.5729 73.8021 10.4896 73.8438 10.4062C73.8854 10.3229 73.9063 10.2448 73.9063 10.1719C73.9063 10.0781 73.8698 10.0104 73.7969 9.96875C73.7344 9.91667 73.6563 9.88021 73.5625 9.85937C73.4688 9.82812 73.3698 9.8125 73.2656 9.8125C73.1719 9.80208 73.099 9.79687 73.0469 9.79687C73.026 9.79687 72.9479 9.79167 72.8125 9.78125C72.6875 9.77083 72.5313 9.75 72.3438 9.71875C72.1563 9.6875 71.9531 9.64583 71.7344 9.59375C71.526 9.53125 71.3385 9.45312 71.1719 9.35938C71.1302 9.42188 71.099 9.47396 71.0781 9.51562C70.6094 10.3177 70.0938 11.0729 69.5313 11.7812C68.9792 12.4896 68.375 13.1406 67.7188 13.7344C67.6979 13.7552 67.6667 13.7656 67.625 13.7656C67.5313 13.7656 67.4844 13.7188 67.4844 13.625C67.4844 13.5833 67.5 13.5469 67.5313 13.5156C68.2292 12.8906 68.8385 12.224 69.3594 11.5156C69.8906 10.8073 70.3802 10.0885 70.8281 9.35938C70.849 9.32812 70.8698 9.29688 70.8906 9.26562C70.9115 9.22396 70.9219 9.19792 70.9219 9.1875C70.7656 9.07292 70.651 8.94271 70.5781 8.79688C70.5156 8.64062 70.4844 8.48438 70.4844 8.32812C70.4844 8.17188 70.5052 8.04688 70.5469 7.95312C70.599 7.85938 70.6563 7.79167 70.7188 7.75C70.7813 7.69792 70.8438 7.66667 70.9063 7.65625C70.9688 7.64583 71.0104 7.64062 71.0313 7.64062C71.1667 7.64062 71.2708 7.66667 71.3438 7.71875C71.4167 7.76042 71.4688 7.81771 71.5 7.89062C71.5313 7.95312 71.5469 8.01562 71.5469 8.07812C71.5573 8.14062 71.5625 8.1875 71.5625 8.21875C71.5625 8.45833 71.474 8.75521 71.2969 9.10937C71.4219 9.18229 71.5677 9.24479 71.7344 9.29687C71.9115 9.34896 72.0833 9.39062 72.25 9.42187C72.4167 9.45312 72.5729 9.47917 72.7188 9.5C72.8646 9.51042 72.9792 9.51562 73.0625 9.51562C73.125 9.51562 73.2188 9.52083 73.3438 9.53125C73.4688 9.54167 73.5938 9.56771 73.7188 9.60937C73.8438 9.64062 73.9531 9.70312 74.0469 9.79687C74.1406 9.88021 74.1875 10 74.1875 10.1562C74.1875 10.3125 74.1042 10.5312 73.9375 10.8125C73.7708 11.0833 73.5573 11.3906 73.2969 11.7344C73.0469 12.0781 72.7708 12.4479 72.4688 12.8437C72.1771 13.2396 71.901 13.6406 71.6406 14.0469C71.3906 14.4427 71.1823 14.8333 71.0156 15.2188C70.849 15.6042 70.7656 15.9583 70.7656 16.2812C70.7656 16.9167 71.1458 17.2344 71.9062 17.2344C72.1667 17.2344 72.4948 17.1771 72.8906 17.0625C73.2865 16.9479 73.7188 16.7917 74.1875 16.5937C74.6563 16.3958 75.1458 16.1615 75.6562 15.8906C76.1771 15.6198 76.6875 15.3333 77.1875 15.0312C77.2083 15.0104 77.2344 15 77.2656 15C77.2969 15 77.3229 15.0156 77.3438 15.0469C77.375 15.0781 77.3906 15.1094 77.3906 15.1406C77.3906 15.1927 77.3698 15.2344 77.3281 15.2656C76.7865 15.599 76.2448 15.9062 75.7031 16.1875C75.1719 16.4583 74.6615 16.6927 74.1719 16.8906C73.6823 17.0885 73.2292 17.2396 72.8125 17.3438C72.3958 17.4583 72.0365 17.5156 71.7344 17.5156ZM70.7969 8.1875C70.7865 8.20833 70.7812 8.24479 70.7812 8.29687C70.7812 8.41146 70.8073 8.53646 70.8594 8.67187C70.9115 8.79687 70.9792 8.88542 71.0625 8.9375C71.1458 8.76042 71.2031 8.61979 71.2344 8.51562C71.2656 8.40104 71.2813 8.30729 71.2813 8.23438C71.2813 8.15104 71.2604 8.07812 71.2188 8.01562C71.1771 7.95312 71.1094 7.92187 71.0156 7.92187C70.901 7.93229 70.8281 8.02083 70.7969 8.1875ZM78.5469 16.9375C78.3698 16.9375 78.1927 16.9271 78.0156 16.9062C77.8385 16.8854 77.6823 16.8385 77.5469 16.7656C77.401 16.6823 77.2865 16.5677 77.2031 16.4219C77.1198 16.276 77.0781 16.0833 77.0781 15.8437C77.0781 15.5312 77.151 15.1979 77.2969 14.8438C77.4323 14.4792 77.6094 14.1146 77.8281 13.75C78.0365 13.3854 78.2604 13.0312 78.5 12.6875C78.7396 12.3438 78.9583 12.0312 79.1563 11.75C79.4375 11.3438 79.7135 10.9583 79.9844 10.5937C80.2656 10.2292 80.5156 9.90625 80.7344 9.625C80.9635 9.34375 81.1458 9.11979 81.2812 8.95312C81.4271 8.78646 81.5 8.70312 81.5 8.70312C81.5104 8.67188 81.5469 8.65625 81.6094 8.65625C81.7031 8.65625 81.75 8.70312 81.75 8.79688C81.75 8.81771 81.7396 8.84896 81.7188 8.89062C81.7188 8.89062 81.6458 8.97396 81.5 9.14062C81.3646 9.30729 81.1823 9.53125 80.9531 9.8125C80.7344 10.0833 80.4844 10.401 80.2031 10.7656C79.9323 11.1302 79.6563 11.5104 79.375 11.9062C79.1875 12.1667 78.9792 12.4635 78.75 12.7969C78.5208 13.1302 78.3021 13.474 78.0938 13.8281C77.8854 14.1823 77.7135 14.5365 77.5781 14.8906C77.4323 15.2344 77.3594 15.5521 77.3594 15.8437C77.3594 16.0312 77.3958 16.1823 77.4687 16.2969C77.5417 16.401 77.6354 16.4792 77.75 16.5312C77.8646 16.5833 77.9896 16.6198 78.125 16.6406C78.2708 16.651 78.4115 16.6562 78.5469 16.6562C78.9948 16.6562 79.4844 16.5677 80.0156 16.3906C80.5469 16.2031 81.0781 15.9635 81.6094 15.6719C82.151 15.3698 82.6823 15.0312 83.2031 14.6562C83.7344 14.2812 84.224 13.8958 84.6719 13.5C84.7135 13.4792 84.7448 13.4687 84.7656 13.4687C84.8594 13.4687 84.9063 13.5156 84.9063 13.6094C84.9063 13.651 84.8906 13.6875 84.8594 13.7188C84.3906 14.1146 83.8958 14.5052 83.375 14.8906C82.8646 15.276 82.3385 15.6198 81.7969 15.9219C81.2552 16.224 80.7083 16.4687 80.1562 16.6562C79.6146 16.8437 79.0781 16.9375 78.5469 16.9375ZM83.7656 6.70312C83.7656 6.91146 83.6927 7.09375 83.5469 7.25C83.401 7.39583 83.224 7.46875 83.0156 7.46875C82.8073 7.46875 82.625 7.39583 82.4688 7.25C82.3229 7.09375 82.25 6.91146 82.25 6.70312C82.25 6.49479 82.3229 6.31771 82.4688 6.17188C82.625 6.02604 82.8073 5.95312 83.0156 5.95312C83.224 5.95312 83.401 6.02604 83.5469 6.17188C83.6927 6.31771 83.7656 6.49479 83.7656 6.70312ZM82.0937 16.9375C82.0729 16.9583 82.1354 16.875 82.2812 16.6875C82.4167 16.5 82.6042 16.25 82.8437 15.9375C83.0729 15.6146 83.3385 15.2448 83.6406 14.8281C83.9427 14.401 84.25 13.9531 84.5625 13.4844C85.0104 12.8177 85.3698 12.2552 85.6406 11.7969C85.9115 11.3281 86.1198 10.9375 86.2656 10.625C86.4219 10.3125 86.526 10.0677 86.5781 9.89062C86.6302 9.71354 86.6563 9.57812 86.6563 9.48437C86.6563 9.42187 86.6458 9.38021 86.625 9.35938C86.6146 9.32812 86.6094 9.29688 86.6094 9.26562C86.6094 9.17188 86.6563 9.125 86.75 9.125C86.8646 9.125 86.9219 9.23958 86.9219 9.46875C86.9219 9.69792 86.776 10.1302 86.4844 10.7656C86.1927 11.3906 85.6979 12.25 85 13.3438C86.3333 11.9167 87.6302 10.8385 88.8906 10.1094C90.1615 9.38021 91.349 9.01562 92.4531 9.01562C93.0885 9.01562 93.5938 9.11979 93.9688 9.32812C94.3438 9.52604 94.5313 9.83854 94.5313 10.2656C94.5313 10.474 94.4896 10.6875 94.4062 10.9062C94.3229 11.1146 94.2292 11.3073 94.125 11.4844C94.0208 11.6615 93.9271 11.8073 93.8438 11.9219C93.7604 12.026 93.7135 12.0833 93.7031 12.0937C93.7031 12.0937 93.6667 12.1406 93.5938 12.2344C93.5313 12.3177 93.4427 12.4323 93.3281 12.5781C93.2135 12.724 93.0833 12.8906 92.9375 13.0781C92.8021 13.2656 92.6667 13.4687 92.5312 13.6875C91.8958 14.6771 91.5781 15.4375 91.5781 15.9688C91.5781 16.1875 91.6458 16.375 91.7812 16.5312C91.9167 16.6771 92.1354 16.75 92.4375 16.75C92.7917 16.75 93.2344 16.625 93.7656 16.375C94.3073 16.125 94.9375 15.75 95.6563 15.25C95.9896 15.0208 96.3021 14.7917 96.5938 14.5625C96.8958 14.3333 97.1615 14.125 97.3906 13.9375C97.6198 13.75 97.7969 13.599 97.9219 13.4844C98.0573 13.3594 98.125 13.2969 98.125 13.2969C98.1667 13.276 98.1979 13.2656 98.2188 13.2656C98.3125 13.2656 98.3594 13.3125 98.3594 13.4062C98.3594 13.4479 98.3438 13.4844 98.3125 13.5156C98.0833 13.724 97.8333 13.9375 97.5625 14.1562C97.3333 14.3437 97.0677 14.5573 96.7656 14.7969C96.474 15.026 96.1615 15.2552 95.8281 15.4844C94.3698 16.5052 93.2396 17.0156 92.4375 17.0156C92.0729 17.0156 91.7917 16.9167 91.5938 16.7188C91.3958 16.5208 91.2969 16.2708 91.2969 15.9688C91.2969 15.3646 91.6302 14.5521 92.2969 13.5312C92.4427 13.3229 92.5833 13.1198 92.7188 12.9219C92.8646 12.724 92.9948 12.5521 93.1094 12.4062C93.2448 12.2292 93.375 12.0677 93.5 11.9219C93.6354 11.7448 93.7604 11.5625 93.875 11.375C93.9688 11.2188 94.0521 11.0417 94.125 10.8437C94.2083 10.6458 94.25 10.4583 94.25 10.2812C94.25 9.63542 93.6458 9.3125 92.4375 9.3125C91.8021 9.3125 91.1719 9.42708 90.5469 9.65625C89.9219 9.875 89.3177 10.1615 88.7344 10.5156C88.151 10.8698 87.5938 11.276 87.0625 11.7344C86.5313 12.1823 86.0417 12.6354 85.5938 13.0937C85.1458 13.5521 84.7448 13.9948 84.3906 14.4219C84.0365 14.849 83.7396 15.2135 83.5 15.5156C83.3437 15.724 83.1979 15.9219 83.0625 16.1094C82.9167 16.2969 82.7917 16.4635 82.6875 16.6094C82.5729 16.7552 82.4844 16.875 82.4219 16.9687C82.3594 17.0625 82.3281 17.1094 82.3281 17.1094L82.0937 16.9375ZM109.922 13.6406C109.943 13.6823 109.953 13.7083 109.953 13.7188C109.953 13.7604 109.932 13.8021 109.891 13.8437C109.88 13.8437 109.74 13.9479 109.469 14.1562C109.198 14.3646 108.833 14.625 108.375 14.9375C107.917 15.2396 107.38 15.5625 106.766 15.9062C106.161 16.2396 105.516 16.5312 104.828 16.7812C104.505 16.8958 104.177 17.0312 103.844 17.1875C103.521 17.3438 103.203 17.5 102.891 17.6562C102.318 18.4688 101.729 19.2656 101.125 20.0469C100.531 20.8385 99.9479 21.5729 99.375 22.25C98.8021 22.9375 98.2604 23.5521 97.75 24.0938C97.2396 24.6354 96.7917 25.0729 96.4062 25.4063C96.3958 25.4167 96.3281 25.4688 96.2031 25.5625C96.0781 25.6667 95.9219 25.776 95.7344 25.8906C95.5469 26.0052 95.3385 26.1094 95.1094 26.2031C94.8802 26.2969 94.6562 26.3438 94.4375 26.3438C94.3125 26.3438 94.1927 26.3229 94.0781 26.2812C93.9531 26.25 93.8385 26.1927 93.7344 26.1094C93.6302 26.0365 93.5469 25.9375 93.4844 25.8125C93.4219 25.6979 93.3906 25.5625 93.3906 25.4063C93.3906 25.0729 93.5312 24.6927 93.8125 24.2656C94.0833 23.8385 94.4531 23.3906 94.9219 22.9219C95.3802 22.4531 95.9219 21.9688 96.5469 21.4688C97.1615 20.9792 97.8125 20.4948 98.5 20.0156C99.1875 19.5365 99.8906 19.0781 100.609 18.6406C101.339 18.2031 102.036 17.8073 102.703 17.4531C102.964 17.0677 103.219 16.6979 103.469 16.3438C103.729 15.9896 104.016 15.6354 104.328 15.2812C103.453 15.9375 102.672 16.4427 101.984 16.7969C101.307 17.151 100.656 17.3281 100.031 17.3281C99.6979 17.3281 99.375 17.2708 99.0625 17.1563C98.7604 17.0521 98.4948 16.901 98.2656 16.7031C98.0365 16.4948 97.8542 16.25 97.7187 15.9688C97.5833 15.6875 97.5156 15.3698 97.5156 15.0156C97.5156 13.9635 98.25 12.8125 99.7188 11.5625C100.76 10.6771 101.776 10.0104 102.766 9.5625C103.755 9.11458 104.703 8.89062 105.609 8.89062C105.849 8.89062 106.115 8.91146 106.406 8.95312C106.708 8.99479 106.99 9.07812 107.25 9.20312C107.521 9.32812 107.745 9.50521 107.922 9.73438C108.109 9.95312 108.203 10.2396 108.203 10.5937C108.203 11.2396 107.828 11.9844 107.078 12.8281C107.453 12.5781 107.828 12.3333 108.203 12.0937C108.589 11.8437 108.995 11.6146 109.422 11.4062C109.432 11.4062 109.438 11.4062 109.438 11.4062C109.448 11.3958 109.464 11.3906 109.484 11.3906C109.516 11.3906 109.547 11.4062 109.578 11.4375C109.609 11.4583 109.625 11.4896 109.625 11.5312C109.625 11.5937 109.599 11.6406 109.547 11.6719C109.568 11.6719 109.479 11.7187 109.281 11.8125C109.094 11.8958 108.833 12.0312 108.5 12.2188C108.177 12.3958 107.797 12.6302 107.359 12.9219C106.922 13.2135 106.464 13.5677 105.984 13.9844C105.516 14.3906 105.042 14.8594 104.563 15.3906C104.094 15.9115 103.651 16.5052 103.234 17.1719C103.484 17.0573 103.734 16.9479 103.984 16.8437C104.234 16.7292 104.479 16.625 104.719 16.5312C105.125 16.3854 105.531 16.2135 105.938 16.0156C106.344 15.8073 106.729 15.599 107.094 15.3906C107.469 15.1719 107.813 14.9583 108.125 14.75C108.448 14.5417 108.724 14.3542 108.953 14.1875C109.193 14.0208 109.38 13.8854 109.516 13.7812C109.651 13.6771 109.719 13.625 109.719 13.625C109.76 13.6042 109.792 13.5937 109.813 13.5937C109.854 13.5937 109.891 13.6094 109.922 13.6406ZM100.031 17.0469C100.469 17.0469 100.917 16.9583 101.375 16.7812C101.844 16.5937 102.302 16.3542 102.75 16.0625C103.208 15.7708 103.656 15.4531 104.094 15.1094C104.531 14.7656 104.948 14.4271 105.344 14.0938C105.854 13.6667 106.276 13.276 106.609 12.9219C106.943 12.5573 107.208 12.2344 107.406 11.9531C107.604 11.6615 107.74 11.4062 107.812 11.1875C107.885 10.9583 107.922 10.7604 107.922 10.5937C107.922 10.3021 107.844 10.0677 107.688 9.89062C107.531 9.70312 107.333 9.55729 107.094 9.45312C106.865 9.34896 106.615 9.27604 106.344 9.23437C106.083 9.19271 105.839 9.17188 105.609 9.17188C104.734 9.17188 103.818 9.39583 102.859 9.84375C101.901 10.2812 100.917 10.9219 99.9063 11.7656C99.2188 12.3594 98.6927 12.9323 98.3281 13.4844C97.974 14.026 97.7969 14.5312 97.7969 15C97.7969 15.3125 97.8542 15.5937 97.9688 15.8437C98.0833 16.0937 98.2396 16.3073 98.4375 16.4844C98.6458 16.6615 98.8854 16.8021 99.1563 16.9062C99.4271 17 99.7188 17.0469 100.031 17.0469ZM96.2187 25.2031C96.6042 24.8698 97.0365 24.4531 97.5156 23.9531C97.9844 23.4531 98.4792 22.8906 99 22.2656C99.5312 21.6406 100.078 20.9635 100.641 20.2344C101.203 19.5052 101.766 18.7448 102.328 17.9531C101.745 18.276 101.125 18.6458 100.469 19.0625C99.8125 19.4792 99.1615 19.9167 98.5156 20.375C97.8802 20.8333 97.2708 21.3021 96.6875 21.7812C96.0937 22.2708 95.5781 22.7344 95.1406 23.1719C94.6927 23.6198 94.3385 24.0312 94.0781 24.4062C93.8073 24.7917 93.6719 25.1198 93.6719 25.3906C93.6719 25.5156 93.6979 25.6198 93.75 25.7031C93.8021 25.7969 93.8646 25.8698 93.9375 25.9219C94.0104 25.974 94.0937 26.0104 94.1875 26.0313C94.2708 26.0625 94.349 26.0781 94.4219 26.0781C94.6094 26.0781 94.8073 26.0365 95.0156 25.9531C95.2135 25.8698 95.401 25.776 95.5781 25.6719C95.7448 25.5677 95.8906 25.4688 96.0156 25.375C96.1302 25.2813 96.1979 25.224 96.2187 25.2031ZM115.984 17.0938C115.682 17.2708 115.339 17.401 114.953 17.4844C114.557 17.5781 114.182 17.625 113.828 17.625C113.755 17.625 113.656 17.6198 113.531 17.6094C113.396 17.6094 113.266 17.599 113.141 17.5781C113.016 17.5677 112.906 17.5469 112.812 17.5156C112.719 17.4844 112.672 17.4375 112.672 17.375C112.672 17.3438 112.687 17.3125 112.719 17.2812C112.74 17.25 112.771 17.2344 112.812 17.2344C112.99 17.2344 113.167 17.25 113.344 17.2812C113.51 17.3229 113.672 17.3438 113.828 17.3438C114.203 17.3438 114.552 17.3021 114.875 17.2188C115.198 17.1354 115.495 17.026 115.766 16.8906C115.391 16.4948 115.115 16.0677 114.938 15.6094C114.76 15.1406 114.672 14.6667 114.672 14.1875C114.672 13.8021 114.729 13.4115 114.844 13.0156C114.948 12.6198 115.104 12.2604 115.312 11.9375C115.521 11.6042 115.781 11.3333 116.094 11.125C116.396 10.9167 116.745 10.8125 117.141 10.8125C117.703 10.8438 118.13 11.0365 118.422 11.3906C118.714 11.7344 118.859 12.1615 118.859 12.6719C118.839 13.5156 118.609 14.3125 118.172 15.0625C117.734 15.8021 117.089 16.4271 116.234 16.9375C116.734 17.3125 117.271 17.6094 117.844 17.8281C118.427 18.0573 119.073 18.1719 119.781 18.1719C120.25 18.1719 120.688 18.1354 121.094 18.0625C121.51 17.9896 121.891 17.8958 122.234 17.7813C122.578 17.6667 122.891 17.5312 123.172 17.375C123.453 17.2292 123.693 17.0833 123.891 16.9375C124.453 16.5208 124.911 16.0625 125.266 15.5625C125.62 15.0625 125.896 14.5417 126.094 14C126.292 13.4479 126.427 12.875 126.5 12.2812C126.583 11.6771 126.641 11.0677 126.672 10.4531C126.703 9.82812 126.724 9.19792 126.734 8.5625C126.755 7.92708 126.802 7.29687 126.875 6.67187C126.406 6.67187 125.964 6.61458 125.547 6.5C125.141 6.375 124.771 6.1875 124.438 5.9375C124.396 5.90625 124.375 5.86458 124.375 5.8125C124.375 5.77083 124.391 5.73958 124.422 5.71875C124.453 5.69792 124.484 5.6875 124.516 5.6875C124.557 5.6875 124.589 5.69792 124.609 5.71875C124.911 5.94792 125.255 6.11979 125.641 6.23437C126.036 6.33854 126.458 6.39062 126.906 6.39062C126.969 5.84896 127.089 5.26042 127.266 4.625C127.443 3.98958 127.688 3.39583 128 2.84375C128.323 2.29167 128.719 1.83333 129.188 1.46875C129.667 1.09375 130.234 0.90625 130.891 0.90625C131.38 0.927083 131.781 1.07292 132.094 1.34375C132.417 1.60417 132.578 2.01042 132.578 2.5625C132.578 2.95833 132.484 3.33854 132.297 3.70312C132.12 4.06771 131.891 4.40625 131.609 4.71875C131.328 5.02083 131.021 5.29167 130.688 5.53125C130.354 5.76042 130.036 5.94271 129.734 6.07812C129.339 6.25521 128.917 6.39583 128.469 6.5C128.031 6.59375 127.594 6.65104 127.156 6.67187C127.083 7.29687 127.036 7.92708 127.016 8.5625C127.005 9.19792 126.984 9.83333 126.953 10.4687C126.932 11.0937 126.88 11.7135 126.797 12.3281C126.714 12.9427 126.568 13.5365 126.359 14.1094C126.151 14.6719 125.865 15.2135 125.5 15.7344C125.135 16.2552 124.656 16.7396 124.063 17.1875C123.635 17.5 123.057 17.7865 122.328 18.0469C121.599 18.3177 120.75 18.4531 119.781 18.4531C119.115 18.4531 118.474 18.349 117.859 18.1406C117.245 17.9427 116.698 17.6615 116.219 17.2969L115.984 17.0938ZM115.437 12.2344C115.125 12.8802 114.969 13.5365 114.969 14.2031C114.969 14.6719 115.052 15.125 115.219 15.5625C115.385 15.9896 115.651 16.3854 116.016 16.75C116.391 16.5208 116.729 16.2552 117.031 15.9531C117.344 15.651 117.615 15.3281 117.844 14.9844C118.073 14.6302 118.25 14.2552 118.375 13.8594C118.5 13.4635 118.563 13.0625 118.563 12.6562C118.563 12.2187 118.432 11.849 118.172 11.5469C117.922 11.2448 117.578 11.0938 117.141 11.0938C116.724 11.1354 116.38 11.2604 116.109 11.4688C115.839 11.6667 115.615 11.9219 115.437 12.2344ZM127.781 3.9375C127.625 4.33333 127.5 4.73437 127.406 5.14062C127.312 5.54688 127.24 5.96354 127.188 6.39062C127.729 6.36979 128.297 6.26562 128.891 6.07812C129.495 5.88021 130.047 5.61458 130.547 5.28125C131.047 4.9375 131.458 4.53646 131.781 4.07812C132.104 3.60937 132.266 3.09375 132.266 2.53125C132.266 2.28125 132.224 2.07292 132.141 1.90625C132.057 1.72917 131.948 1.58854 131.812 1.48438C131.688 1.38021 131.542 1.30729 131.375 1.26562C131.208 1.21354 131.047 1.1875 130.891 1.1875C130.484 1.20833 130.12 1.30208 129.797 1.46875C129.474 1.625 129.182 1.83333 128.922 2.09375C128.672 2.35417 128.453 2.64583 128.266 2.96875C128.078 3.28125 127.917 3.60417 127.781 3.9375ZM138.25 17.1406C137.906 17.1406 137.615 17.0625 137.375 16.9062C137.135 16.75 137.016 16.4896 137.016 16.125C137.016 15.8125 137.115 15.4219 137.313 14.9531C137.51 14.474 137.823 13.9115 138.25 13.2656C137.594 13.8385 136.969 14.3542 136.375 14.8125C135.792 15.2708 135.193 15.6615 134.578 15.9844C134.13 16.2135 133.729 16.3906 133.375 16.5156C133.021 16.6406 132.714 16.7292 132.453 16.7812C132.203 16.8333 132.005 16.8646 131.859 16.875C131.714 16.8854 131.625 16.8906 131.594 16.8906C131.583 16.8906 131.5 16.8906 131.344 16.8906C131.198 16.8802 131.042 16.8437 130.875 16.7812C130.698 16.7187 130.536 16.6094 130.391 16.4531C130.245 16.2969 130.172 16.0625 130.172 15.75C130.172 15.3021 130.38 14.6823 130.797 13.8906C131.214 13.0885 131.828 12.1042 132.641 10.9375C132.984 10.4375 133.271 10.0365 133.5 9.73438C133.729 9.42188 133.906 9.18229 134.031 9.01562C134.167 8.84896 134.26 8.73958 134.313 8.6875C134.375 8.625 134.411 8.59375 134.422 8.59375C134.516 8.59375 134.563 8.64583 134.563 8.75C134.563 8.78125 134.552 8.80729 134.531 8.82812C134.531 8.82812 134.427 8.96354 134.219 9.23437C134.021 9.49479 133.771 9.83333 133.469 10.25C133.167 10.6667 132.839 11.1354 132.484 11.6562C132.13 12.1667 131.802 12.6771 131.5 13.1875C131.208 13.6979 130.964 14.1823 130.766 14.6406C130.557 15.0885 130.453 15.4583 130.453 15.75C130.453 16.0729 130.562 16.3021 130.781 16.4375C130.99 16.5625 131.245 16.625 131.547 16.625C131.797 16.625 132.068 16.5938 132.359 16.5312C132.651 16.4583 132.932 16.375 133.203 16.2812C133.484 16.1771 133.734 16.0729 133.953 15.9688C134.182 15.8646 134.359 15.7812 134.484 15.7187C135.068 15.4062 135.76 14.9479 136.563 14.3437C137.375 13.7396 138.266 12.9115 139.234 11.8594C139.516 11.526 139.807 11.1719 140.109 10.7969C140.422 10.4219 140.703 10.0781 140.953 9.76562C141.214 9.44271 141.427 9.17708 141.594 8.96875C141.76 8.75 141.844 8.64062 141.844 8.64062L142.063 8.82812C141.677 9.31771 141.271 9.80729 140.844 10.2969C140.427 10.7865 140.016 11.2865 139.609 11.7969C139.214 12.2969 138.839 12.8125 138.484 13.3438C138.141 13.8646 137.844 14.4062 137.594 14.9687C137.406 15.3958 137.313 15.7604 137.313 16.0625C137.313 16.6042 137.625 16.875 138.25 16.875C138.583 16.875 138.964 16.7969 139.391 16.6406C139.828 16.474 140.286 16.2448 140.766 15.9531C141.255 15.6615 141.76 15.3125 142.281 14.9062C142.802 14.4896 143.323 14.0312 143.844 13.5312C143.885 13.5104 143.922 13.5 143.953 13.5C144.036 13.5 144.078 13.5469 144.078 13.6406C144.078 13.6823 144.068 13.7135 144.047 13.7344C143.516 14.2552 142.984 14.724 142.453 15.1406C141.922 15.5573 141.406 15.9115 140.906 16.2031C140.406 16.4948 139.932 16.724 139.484 16.8906C139.036 17.0469 138.625 17.1302 138.25 17.1406ZM146.297 17.0781C145.339 17.0781 144.604 16.9167 144.094 16.5937C143.594 16.2604 143.344 15.7969 143.344 15.2031C143.344 14.6823 143.516 14.1146 143.859 13.5C144.214 12.875 144.661 12.276 145.203 11.7031C145.755 11.1302 146.359 10.6302 147.016 10.2031C147.682 9.76562 148.328 9.47396 148.953 9.32812C149.182 9.27604 149.396 9.23958 149.594 9.21875C149.792 9.1875 149.974 9.17188 150.141 9.17188C150.609 9.17188 150.964 9.28125 151.203 9.5C151.443 9.71875 151.563 9.99479 151.563 10.3281C151.563 10.5052 151.531 10.6823 151.469 10.8594C151.417 11.0365 151.349 11.125 151.266 11.125C151.172 11.125 151.125 11.0833 151.125 11C151.125 10.9271 151.151 10.8333 151.203 10.7188C151.255 10.6042 151.281 10.4792 151.281 10.3438C151.281 10.0729 151.182 9.85937 150.984 9.70312C150.797 9.53646 150.505 9.45312 150.109 9.45312C149.745 9.45312 149.354 9.51562 148.938 9.64062C148.521 9.75521 148.099 9.92708 147.672 10.1562C147.245 10.375 146.818 10.651 146.391 10.9844C145.974 11.3073 145.578 11.6771 145.203 12.0937C144.703 12.6562 144.318 13.2083 144.047 13.75C143.776 14.2917 143.641 14.776 143.641 15.2031C143.641 15.5573 143.734 15.8438 143.922 16.0625C144.12 16.2708 144.354 16.4323 144.625 16.5469C144.906 16.651 145.198 16.7187 145.5 16.75C145.812 16.7812 146.083 16.7969 146.313 16.7969C146.458 16.7969 146.578 16.7969 146.672 16.7969C146.766 16.7865 146.818 16.7812 146.828 16.7812C146.828 16.7812 146.891 16.776 147.016 16.7656C147.151 16.7552 147.328 16.7344 147.547 16.7031C147.776 16.6719 148.042 16.6302 148.344 16.5781C148.646 16.526 148.974 16.4531 149.328 16.3594C149.661 16.276 150.036 16.1615 150.453 16.0156C150.87 15.8594 151.307 15.6719 151.766 15.4531C152.224 15.224 152.698 14.9531 153.188 14.6406C153.677 14.3281 154.167 13.9687 154.656 13.5625C154.698 13.5417 154.729 13.5312 154.75 13.5312C154.844 13.5312 154.891 13.5781 154.891 13.6719C154.891 13.7344 154.875 13.7708 154.844 13.7812C154.042 14.4375 153.177 15.0156 152.25 15.5156C151.333 16.0156 150.38 16.3906 149.391 16.6406C148.682 16.8177 148.094 16.9323 147.625 16.9844C147.156 17.0365 146.896 17.0625 146.844 17.0625C146.823 17.0625 146.76 17.0625 146.656 17.0625C146.563 17.0729 146.443 17.0781 146.297 17.0781ZM157.125 17.0781C156.167 17.0781 155.432 16.9167 154.922 16.5937C154.422 16.2604 154.172 15.7969 154.172 15.2031C154.172 14.6823 154.344 14.1146 154.688 13.5C155.042 12.875 155.49 12.276 156.031 11.7031C156.583 11.1302 157.188 10.6302 157.844 10.2031C158.51 9.76562 159.156 9.47396 159.781 9.32812C160.01 9.27604 160.224 9.23958 160.422 9.21875C160.62 9.1875 160.802 9.17188 160.969 9.17188C161.438 9.17188 161.792 9.28125 162.031 9.5C162.271 9.71875 162.391 9.99479 162.391 10.3281C162.391 10.5052 162.359 10.6823 162.297 10.8594C162.245 11.0365 162.177 11.125 162.094 11.125C162 11.125 161.953 11.0833 161.953 11C161.953 10.9271 161.979 10.8333 162.031 10.7188C162.083 10.6042 162.109 10.4792 162.109 10.3438C162.109 10.0729 162.01 9.85937 161.812 9.70312C161.625 9.53646 161.333 9.45312 160.938 9.45312C160.573 9.45312 160.182 9.51562 159.766 9.64062C159.349 9.75521 158.927 9.92708 158.5 10.1562C158.073 10.375 157.646 10.651 157.219 10.9844C156.802 11.3073 156.406 11.6771 156.031 12.0937C155.531 12.6562 155.146 13.2083 154.875 13.75C154.604 14.2917 154.469 14.776 154.469 15.2031C154.469 15.5573 154.562 15.8438 154.75 16.0625C154.948 16.2708 155.182 16.4323 155.453 16.5469C155.734 16.651 156.026 16.7187 156.328 16.75C156.641 16.7812 156.911 16.7969 157.141 16.7969C157.286 16.7969 157.406 16.7969 157.5 16.7969C157.594 16.7865 157.646 16.7812 157.656 16.7812C157.656 16.7812 157.719 16.776 157.844 16.7656C157.979 16.7552 158.156 16.7344 158.375 16.7031C158.604 16.6719 158.87 16.6302 159.172 16.5781C159.474 16.526 159.802 16.4531 160.156 16.3594C160.49 16.276 160.865 16.1615 161.281 16.0156C161.698 15.8594 162.135 15.6719 162.594 15.4531C163.052 15.224 163.526 14.9531 164.016 14.6406C164.505 14.3281 164.995 13.9687 165.484 13.5625C165.526 13.5417 165.557 13.5312 165.578 13.5312C165.672 13.5312 165.719 13.5781 165.719 13.6719C165.719 13.7344 165.703 13.7708 165.672 13.7812C164.87 14.4375 164.005 15.0156 163.078 15.5156C162.161 16.0156 161.208 16.3906 160.219 16.6406C159.51 16.8177 158.922 16.9323 158.453 16.9844C157.984 17.0365 157.724 17.0625 157.672 17.0625C157.651 17.0625 157.589 17.0625 157.484 17.0625C157.391 17.0729 157.271 17.0781 157.125 17.0781ZM166.273 16.7969C165.909 16.599 165.654 16.3385 165.508 16.0156C165.352 15.6927 165.273 15.3385 165.273 14.9531C165.273 14.651 165.315 14.3385 165.398 14.0156C165.471 13.6927 165.576 13.3854 165.711 13.0937C165.846 12.7917 165.997 12.5156 166.164 12.2656C166.331 12.0052 166.503 11.7812 166.68 11.5937C166.513 11.5104 166.388 11.4479 166.305 11.4062C166.232 11.3646 166.185 11.3333 166.164 11.3125C166.143 11.2812 166.133 11.2604 166.133 11.25C166.143 11.2396 166.148 11.224 166.148 11.2031C166.148 11.1094 166.195 11.0625 166.289 11.0625C166.331 11.0625 166.346 11.0625 166.336 11.0625C166.326 11.0521 166.326 11.0573 166.336 11.0781C166.346 11.0885 166.383 11.1146 166.445 11.1562C166.518 11.1979 166.664 11.2708 166.883 11.375C167.758 10.4375 168.669 9.69271 169.617 9.14062C170.576 8.58854 171.497 8.3125 172.383 8.3125C172.685 8.3125 172.977 8.35417 173.258 8.4375C173.539 8.52083 173.789 8.64062 174.008 8.79688C174.227 8.94271 174.398 9.125 174.523 9.34375C174.659 9.55208 174.727 9.78646 174.727 10.0469C174.727 10.4844 174.591 10.8698 174.32 11.2031C174.06 11.5365 173.732 11.8125 173.336 12.0312C172.951 12.25 172.534 12.4167 172.086 12.5312C171.638 12.6354 171.227 12.6875 170.852 12.6875C170.393 12.6875 169.956 12.651 169.539 12.5781C169.122 12.4948 168.742 12.4062 168.398 12.3125C168.065 12.2083 167.773 12.1042 167.523 12C167.273 11.8854 167.081 11.7969 166.945 11.7344C166.789 11.8802 166.628 12.0781 166.461 12.3281C166.294 12.5677 166.143 12.8333 166.008 13.125C165.883 13.4062 165.773 13.7083 165.68 14.0312C165.596 14.3437 165.555 14.651 165.555 14.9531C165.555 15.5469 165.758 16.0208 166.164 16.375C166.581 16.7292 167.221 16.9062 168.086 16.9062C168.419 16.9062 168.758 16.8854 169.102 16.8437C169.445 16.7917 169.773 16.7344 170.086 16.6719C170.398 16.599 170.68 16.526 170.93 16.4531C171.18 16.3698 171.383 16.2969 171.539 16.2344C171.956 16.0677 172.362 15.8906 172.758 15.7031C173.164 15.5052 173.57 15.2865 173.977 15.0469C174.393 14.8073 174.82 14.5312 175.258 14.2187C175.695 13.8958 176.164 13.5208 176.664 13.0937C176.706 13.0729 176.737 13.0625 176.758 13.0625C176.789 13.0625 176.82 13.0729 176.852 13.0937C176.883 13.1146 176.898 13.151 176.898 13.2031C176.898 13.2448 176.883 13.2812 176.852 13.3125C176.341 13.75 175.862 14.1302 175.414 14.4531C174.966 14.7656 174.534 15.0469 174.117 15.2969C173.701 15.5365 173.289 15.75 172.883 15.9375C172.477 16.125 172.06 16.3073 171.633 16.4844C171.404 16.5677 171.148 16.651 170.867 16.7344C170.586 16.8177 170.289 16.8906 169.977 16.9531C169.674 17.0156 169.362 17.0677 169.039 17.1094C168.716 17.151 168.398 17.1719 168.086 17.1719C167.753 17.1719 167.43 17.1406 167.117 17.0781C166.805 17.026 166.523 16.9323 166.273 16.7969ZM167.555 11.7031C167.721 11.776 167.919 11.8542 168.148 11.9375C168.388 12.0208 168.648 12.099 168.93 12.1719C169.211 12.2344 169.513 12.2917 169.836 12.3437C170.159 12.3854 170.487 12.4062 170.82 12.4062C171.247 12.4062 171.674 12.3438 172.102 12.2188C172.529 12.0938 172.914 11.9271 173.258 11.7187C173.602 11.5104 173.883 11.2656 174.102 10.9844C174.32 10.6927 174.43 10.3906 174.43 10.0781C174.43 9.85937 174.372 9.66146 174.258 9.48437C174.154 9.29687 174.008 9.13542 173.82 9C173.633 8.86458 173.414 8.76042 173.164 8.6875C172.924 8.61458 172.674 8.57812 172.414 8.57812C172.081 8.57812 171.716 8.625 171.32 8.71875C170.935 8.8125 170.518 8.97396 170.07 9.20312C169.633 9.42187 169.164 9.71875 168.664 10.0937C168.174 10.4687 167.664 10.9427 167.133 11.5156L167.555 11.7031ZM177.719 16.6562C177.635 16.4896 177.594 16.3073 177.594 16.1094C177.594 15.6406 177.813 15.1875 178.25 14.75C178.698 14.3021 179.469 13.8437 180.562 13.375C180.615 13.375 180.641 13.3542 180.641 13.3125C180.641 13.2708 180.641 13.2344 180.641 13.2031C180.641 12.6719 180.609 12.1667 180.547 11.6875C180.495 11.1979 180.458 10.7031 180.438 10.2031C179.969 10.599 179.5 11 179.031 11.4062C178.563 11.8021 178.135 12.1667 177.75 12.5C177.375 12.8229 177.062 13.0937 176.812 13.3125C176.573 13.5208 176.453 13.625 176.453 13.625C176.432 13.6458 176.401 13.6562 176.359 13.6562C176.266 13.6562 176.219 13.6146 176.219 13.5312C176.219 13.4896 176.234 13.4531 176.266 13.4219C176.266 13.4115 176.391 13.2969 176.641 13.0781C176.901 12.849 177.229 12.5625 177.625 12.2188C178.031 11.8646 178.479 11.4792 178.969 11.0625C179.458 10.6458 179.943 10.2396 180.422 9.84375C180.422 9 180.531 8.40104 180.75 8.04688C180.969 7.68229 181.234 7.5 181.547 7.5C181.745 7.5 181.896 7.5625 182 7.6875C182.115 7.8125 182.172 7.96354 182.172 8.14062C182.172 8.32812 182.115 8.51562 182 8.70312C181.896 8.88021 181.766 9.04687 181.609 9.20312C181.453 9.35937 181.292 9.50521 181.125 9.64062C180.958 9.76562 180.818 9.875 180.703 9.96875C180.703 10.5312 180.74 11.0573 180.813 11.5469C180.885 12.026 180.922 12.5104 180.922 13V13.2187C181.182 13.1146 181.427 13.0208 181.656 12.9375C181.896 12.8437 182.104 12.7708 182.281 12.7187C182.49 12.6562 182.682 12.599 182.859 12.5469C183.172 12.4531 183.536 12.3698 183.953 12.2969C184.38 12.224 184.807 12.1875 185.234 12.1875C185.318 12.1875 185.406 12.1875 185.5 12.1875C185.604 12.1875 185.656 12.2344 185.656 12.3281C185.656 12.4219 185.609 12.4687 185.516 12.4687H185.25C184.833 12.4687 184.417 12.5052 184 12.5781C183.594 12.651 183.24 12.7292 182.938 12.8125L182.328 13.0156C182.141 13.0781 181.927 13.151 181.688 13.2344C181.448 13.3177 181.193 13.4167 180.922 13.5312C180.922 14.7917 180.729 15.7344 180.344 16.3594C179.969 16.974 179.484 17.2812 178.891 17.2812C178.651 17.2812 178.422 17.2292 178.203 17.125C177.984 17.0208 177.823 16.8646 177.719 16.6562ZM180.641 13.6406C179.693 14.0365 178.995 14.4375 178.547 14.8438C178.099 15.25 177.875 15.6771 177.875 16.125C177.875 16.4375 177.979 16.6667 178.188 16.8125C178.406 16.9479 178.641 17.0156 178.891 17.0156C179.234 17.0156 179.516 16.9115 179.734 16.7031C179.953 16.4948 180.125 16.2292 180.25 15.9062C180.385 15.5729 180.479 15.2083 180.531 14.8125C180.583 14.4062 180.62 14.0156 180.641 13.6406ZM181.156 7.95312C181.031 8.06771 180.927 8.26562 180.844 8.54687C180.771 8.82812 180.724 9.1875 180.703 9.625C180.797 9.5625 180.911 9.48437 181.047 9.39062C181.182 9.28646 181.313 9.17187 181.438 9.04687C181.563 8.91146 181.667 8.76562 181.75 8.60938C181.844 8.45312 181.891 8.28646 181.891 8.10937C181.891 8.07812 181.87 8.01562 181.828 7.92187C181.797 7.82812 181.703 7.78125 181.547 7.78125C181.422 7.78125 181.292 7.83854 181.156 7.95312ZM186.18 16.6562C186.096 16.4896 186.055 16.3073 186.055 16.1094C186.055 15.6406 186.273 15.1875 186.711 14.75C187.159 14.3021 187.93 13.8437 189.023 13.375C189.076 13.375 189.102 13.3542 189.102 13.3125C189.102 13.2708 189.102 13.2344 189.102 13.2031C189.102 12.6719 189.07 12.1667 189.008 11.6875C188.956 11.1979 188.919 10.7031 188.898 10.2031C188.43 10.599 187.961 11 187.492 11.4062C187.023 11.8021 186.596 12.1667 186.211 12.5C185.836 12.8229 185.523 13.0937 185.273 13.3125C185.034 13.5208 184.914 13.625 184.914 13.625C184.893 13.6458 184.862 13.6562 184.82 13.6562C184.727 13.6562 184.68 13.6146 184.68 13.5312C184.68 13.4896 184.695 13.4531 184.727 13.4219C184.727 13.4115 184.852 13.2969 185.102 13.0781C185.362 12.849 185.69 12.5625 186.086 12.2188C186.492 11.8646 186.94 11.4792 187.43 11.0625C187.919 10.6458 188.404 10.2396 188.883 9.84375C188.883 9 188.992 8.40104 189.211 8.04688C189.43 7.68229 189.695 7.5 190.008 7.5C190.206 7.5 190.357 7.5625 190.461 7.6875C190.576 7.8125 190.633 7.96354 190.633 8.14062C190.633 8.32812 190.576 8.51562 190.461 8.70312C190.357 8.88021 190.227 9.04687 190.07 9.20312C189.914 9.35937 189.753 9.50521 189.586 9.64062C189.419 9.76562 189.279 9.875 189.164 9.96875C189.164 10.5312 189.201 11.0573 189.273 11.5469C189.346 12.026 189.383 12.5104 189.383 13V13.2187C189.643 13.1146 189.888 13.0208 190.117 12.9375C190.357 12.8437 190.565 12.7708 190.742 12.7187C190.951 12.6562 191.143 12.599 191.32 12.5469C191.633 12.4531 191.997 12.3698 192.414 12.2969C192.841 12.224 193.268 12.1875 193.695 12.1875C193.779 12.1875 193.867 12.1875 193.961 12.1875C194.065 12.1875 194.117 12.2344 194.117 12.3281C194.117 12.4219 194.07 12.4687 193.977 12.4687H193.711C193.294 12.4687 192.878 12.5052 192.461 12.5781C192.055 12.651 191.701 12.7292 191.398 12.8125L190.789 13.0156C190.602 13.0781 190.388 13.151 190.148 13.2344C189.909 13.3177 189.654 13.4167 189.383 13.5312C189.383 14.7917 189.19 15.7344 188.805 16.3594C188.43 16.974 187.945 17.2812 187.352 17.2812C187.112 17.2812 186.883 17.2292 186.664 17.125C186.445 17.0208 186.284 16.8646 186.18 16.6562ZM189.102 13.6406C188.154 14.0365 187.456 14.4375 187.008 14.8438C186.56 15.25 186.336 15.6771 186.336 16.125C186.336 16.4375 186.44 16.6667 186.648 16.8125C186.867 16.9479 187.102 17.0156 187.352 17.0156C187.695 17.0156 187.977 16.9115 188.195 16.7031C188.414 16.4948 188.586 16.2292 188.711 15.9062C188.846 15.5729 188.94 15.2083 188.992 14.8125C189.044 14.4062 189.081 14.0156 189.102 13.6406ZM189.617 7.95312C189.492 8.06771 189.388 8.26562 189.305 8.54687C189.232 8.82812 189.185 9.1875 189.164 9.625C189.258 9.5625 189.372 9.48437 189.508 9.39062C189.643 9.28646 189.773 9.17187 189.898 9.04687C190.023 8.91146 190.128 8.76562 190.211 8.60938C190.305 8.45312 190.352 8.28646 190.352 8.10937C190.352 8.07812 190.331 8.01562 190.289 7.92187C190.258 7.82812 190.164 7.78125 190.008 7.78125C189.883 7.78125 189.753 7.83854 189.617 7.95312Z" fill="black"/>
</svg>
