<svg width="187" height="186" viewBox="0 0 187 186" fill="none" xmlns="http://www.w3.org/2000/svg">
<path d="M104.786 161.746C105.245 161.667 105.668 161.762 106.054 162.03C106.441 162.304 106.674 162.673 106.754 163.138C106.833 163.597 106.735 164.017 106.46 164.399C106.186 164.786 105.82 165.019 105.36 165.098C104.901 165.176 104.478 165.079 104.091 164.805C103.705 164.537 103.472 164.173 103.394 163.714C103.341 163.406 103.371 163.11 103.484 162.825C103.592 162.547 103.759 162.311 103.985 162.117C104.211 161.922 104.478 161.799 104.786 161.746Z" fill="black"/>
<path d="M117.387 158.624L121.385 171.089L119.04 171.842L118.405 169.861L118.275 169.903C118.263 170.647 118.032 171.303 117.581 171.871C117.127 172.446 116.535 172.851 115.805 173.085C115.653 173.134 115.473 173.186 115.264 173.241C115.05 173.298 114.88 173.337 114.756 173.359L114.011 171.038C114.117 171.034 114.3 171.008 114.559 170.961C114.82 170.919 115.075 170.858 115.324 170.778C115.898 170.594 116.37 170.308 116.741 169.921C117.108 169.54 117.353 169.095 117.476 168.584C117.6 168.079 117.576 167.556 117.402 167.015L114.96 159.402L117.387 158.624Z" fill="black"/>
<path d="M128.002 153.575C129.117 152.927 130.216 152.608 131.299 152.617C132.379 152.633 133.391 152.95 134.333 153.565C135.273 154.189 136.084 155.088 136.766 156.262C137.439 157.422 137.816 158.57 137.897 159.705C137.973 160.844 137.765 161.888 137.272 162.838C136.774 163.79 135.999 164.572 134.947 165.182C134.309 165.553 133.628 165.807 132.906 165.944C132.184 166.08 131.453 166.061 130.714 165.886C129.975 165.71 129.258 165.341 128.564 164.779C127.872 164.221 127.228 163.429 126.632 162.402L126.178 161.621L135.178 156.396L136.136 158.047L129.296 162.018C129.633 162.598 130.049 163.043 130.545 163.353C131.043 163.668 131.581 163.832 132.16 163.844C132.734 163.859 133.306 163.701 133.876 163.37C134.495 163.011 134.947 162.545 135.232 161.972C135.515 161.407 135.64 160.808 135.609 160.176C135.575 159.552 135.394 158.958 135.066 158.393L134.317 157.103C133.878 156.346 133.371 155.779 132.798 155.403C132.219 155.029 131.608 154.842 130.964 154.841C130.323 154.846 129.68 155.035 129.037 155.408C128.619 155.651 128.272 155.931 127.997 156.248C127.724 156.571 127.532 156.925 127.422 157.312C127.311 157.698 127.292 158.106 127.364 158.537L125.06 159.372C124.871 158.661 124.858 157.949 125.022 157.236C125.185 156.531 125.516 155.862 126.016 155.23C126.514 154.606 127.176 154.054 128.002 153.575Z" fill="black"/>
<path d="M150.238 145.29L144.725 139.811L146.522 138.004L155.807 147.232L154.083 148.967L152.571 147.465L152.457 147.579C152.737 148.282 152.799 149.009 152.645 149.76C152.486 150.516 152.061 151.243 151.368 151.94C150.739 152.573 150.055 152.995 149.317 153.206C148.582 153.421 147.825 153.401 147.045 153.147C146.264 152.892 145.491 152.384 144.726 151.623L138.82 145.754L140.616 143.946L146.304 149.599C146.977 150.268 147.678 150.616 148.405 150.641C149.136 150.671 149.806 150.38 150.415 149.767C150.832 149.348 151.111 148.885 151.254 148.379C151.394 147.876 151.382 147.356 151.219 146.818C151.057 146.288 150.73 145.779 150.238 145.29Z" fill="black"/>
<path d="M160.471 141.166L158.756 140.052L162.651 134.055L164.366 135.169L160.471 141.166ZM165.952 138.486L164.564 140.623L154.178 133.878C153.764 133.608 153.412 133.468 153.121 133.455C152.836 133.446 152.592 133.515 152.389 133.66C152.187 133.814 152.011 134.008 151.859 134.241C151.748 134.413 151.662 134.571 151.602 134.715C151.543 134.859 151.497 134.971 151.465 135.052L149.448 134.291C149.481 134.137 149.548 133.929 149.649 133.67C149.745 133.407 149.902 133.102 150.12 132.756C150.476 132.188 150.916 131.729 151.442 131.379C151.967 131.029 152.546 130.846 153.18 130.831C153.813 130.815 154.461 131.023 155.123 131.453L165.952 138.486Z" fill="black"/>
<path d="M159.043 116.079L171.204 120.925L170.292 123.213L168.36 122.443L168.31 122.57C168.876 123.052 169.235 123.648 169.387 124.357C169.542 125.073 169.477 125.787 169.193 126.5C169.134 126.648 169.06 126.82 168.969 127.016C168.876 127.218 168.799 127.374 168.737 127.483L166.473 126.581C166.537 126.497 166.633 126.339 166.762 126.109C166.895 125.881 167.011 125.646 167.107 125.403C167.33 124.843 167.41 124.297 167.347 123.764C167.288 123.239 167.1 122.767 166.784 122.347C166.473 121.93 166.054 121.616 165.526 121.405L158.099 118.446L159.043 116.079Z" fill="black"/>
<path d="M162.15 103.435C162.293 102.618 162.573 101.906 162.991 101.298C163.414 100.691 163.95 100.246 164.6 99.9611C165.248 99.6821 165.995 99.6165 166.84 99.7641C167.568 99.8911 168.143 100.136 168.564 100.498C168.985 100.86 169.291 101.302 169.483 101.826C169.674 102.35 169.788 102.918 169.825 103.53C169.862 104.142 169.864 104.759 169.83 105.382C169.785 106.17 169.748 106.81 169.72 107.301C169.698 107.793 169.735 108.16 169.831 108.402C169.927 108.643 170.126 108.791 170.429 108.843L170.487 108.854C171.221 108.982 171.825 108.874 172.3 108.53C172.774 108.192 173.083 107.617 173.224 106.805C173.372 105.96 173.301 105.261 173.011 104.709C172.725 104.163 172.372 103.758 171.951 103.494L172.9 101.229C173.635 101.646 174.196 102.165 174.584 102.786C174.976 103.414 175.219 104.1 175.315 104.843C175.415 105.587 175.398 106.349 175.262 107.127C175.172 107.642 175.015 108.177 174.791 108.732C174.572 109.293 174.259 109.798 173.852 110.246C173.444 110.7 172.915 111.037 172.265 111.258C171.621 111.48 170.828 111.509 169.888 111.345L161.324 109.849L161.752 107.397L163.516 107.705L163.533 107.605C163.237 107.386 162.96 107.086 162.704 106.707C162.447 106.328 162.259 105.865 162.141 105.32C162.023 104.774 162.026 104.146 162.15 103.435ZM164.07 104.333C163.949 105.027 163.982 105.644 164.171 106.185C164.358 106.731 164.65 107.171 165.047 107.506C165.449 107.847 165.905 108.062 166.414 108.151L168.076 108.441C168.002 108.336 167.949 108.148 167.915 107.877C167.887 107.612 167.873 107.313 167.873 106.978C167.88 106.645 167.887 106.32 167.896 106.005C167.911 105.69 167.922 105.427 167.93 105.215C167.954 104.717 167.928 104.254 167.853 103.825C167.777 103.403 167.623 103.047 167.39 102.758C167.163 102.476 166.825 102.296 166.377 102.218C165.756 102.11 165.246 102.257 164.847 102.66C164.453 103.064 164.194 103.622 164.07 104.333Z" fill="black"/>
<path d="M162.385 79.3937L179.737 77.5073L180.41 83.6924C180.556 85.0424 180.432 86.1876 180.037 87.1278C179.642 88.068 179.042 88.8048 178.237 89.3381C177.438 89.8708 176.507 90.1949 175.445 90.3103C174.378 90.4264 173.393 90.3077 172.492 89.9542C171.597 89.6057 170.852 89.0122 170.258 88.1738C169.67 87.3404 169.303 86.2515 169.157 84.9072L168.694 80.6538L170.914 80.4125L171.351 84.4286C171.444 85.2815 171.666 85.9575 172.017 86.4565C172.374 86.955 172.823 87.3005 173.364 87.4932C173.905 87.6858 174.504 87.7465 175.159 87.6753C175.814 87.6041 176.382 87.4165 176.864 87.1127C177.345 86.8089 177.701 86.3731 177.93 85.8052C178.161 85.2429 178.229 84.5268 178.134 83.6569L177.777 80.3695L162.67 82.0118L162.385 79.3937Z" fill="black"/>
<path d="M173.646 59.1148L157.627 66.0465L156.615 63.7077L172.634 56.776L173.646 59.1148Z" fill="black"/>
<path d="M149.867 52.6437C149.401 51.9571 149.107 51.2503 148.985 50.5232C148.867 49.7929 148.943 49.0997 149.212 48.4435C149.484 47.7921 149.975 47.2257 150.685 46.7441C151.297 46.3296 151.88 46.1059 152.434 46.0732C152.989 46.0405 153.517 46.1458 154.018 46.3893C154.519 46.6328 154.996 46.9615 155.449 47.3756C155.901 47.7896 156.332 48.2322 156.74 48.7033C157.256 49.3012 157.674 49.7865 157.995 50.159C158.321 50.5284 158.603 50.7665 158.84 50.8733C159.077 50.9802 159.323 50.9475 159.577 50.7753L159.626 50.7418C160.242 50.3241 160.602 49.8264 160.704 49.2489C160.81 48.676 160.632 48.0486 160.169 47.3667C159.688 46.6566 159.151 46.2038 158.558 46.0084C157.974 45.8144 157.438 45.769 156.952 45.8721L156.06 43.5839C156.877 43.3725 157.642 43.3555 158.352 43.5327C159.07 43.7114 159.722 44.0348 160.308 44.503C160.897 44.968 161.414 45.5273 161.857 46.1809C162.151 46.6136 162.41 47.1072 162.635 47.6617C162.868 48.2177 162.994 48.7982 163.013 49.4032C163.035 50.0129 162.889 50.6231 162.576 51.2339C162.267 51.8415 161.717 52.4132 160.927 52.9489L153.732 57.8279L152.336 55.7681L153.817 54.7636L153.759 54.679C153.394 54.7276 152.988 54.7048 152.539 54.6106C152.091 54.5164 151.635 54.3144 151.17 54.0044C150.706 53.6945 150.272 53.2409 149.867 52.6437ZM151.871 51.9542C152.266 52.5373 152.719 52.9576 153.23 53.2152C153.745 53.4775 154.261 53.5908 154.779 53.5552C155.305 53.5211 155.782 53.359 156.21 53.0688L157.607 52.1217C157.48 52.0975 157.311 51.9995 157.098 51.8279C156.894 51.6577 156.675 51.4522 156.443 51.2113C156.216 50.9673 155.996 50.7287 155.783 50.4956C155.575 50.2593 155.4 50.0621 155.258 49.904C154.929 49.53 154.589 49.2151 154.237 48.9594C153.888 48.7085 153.53 48.56 153.162 48.514C152.803 48.4696 152.435 48.5749 152.059 48.83C151.537 49.184 151.272 49.6447 151.266 50.2121C151.264 50.7762 151.466 51.357 151.871 51.9542Z" fill="black"/>
<path d="M152.896 34.5749L151.488 36.0585L146.302 31.1359L147.71 29.6523L152.896 34.5749ZM151.26 28.6976L153.108 30.4519L144.583 39.4338C144.243 39.7923 144.04 40.1131 143.975 40.3961C143.914 40.675 143.937 40.9276 144.043 41.1539C144.157 41.38 144.316 41.5889 144.518 41.7806C144.666 41.9214 144.805 42.0343 144.936 42.1193C145.067 42.2043 145.169 42.2699 145.243 42.3163L144.127 44.16C143.981 44.0995 143.79 43.9959 143.553 43.8494C143.312 43.707 143.041 43.497 142.741 43.2195C142.246 42.7662 141.875 42.2494 141.627 41.6691C141.379 41.0888 141.305 40.4859 141.405 39.8603C141.505 39.2347 141.827 38.6355 142.371 38.0627L151.26 28.6976Z" fill="black"/>
<path d="M132.099 34.7316L139.691 24.0674L141.767 25.5453L134.175 36.2095L132.099 34.7316ZM141.911 23.1683C141.55 22.9113 141.326 22.5701 141.238 22.1449C141.158 21.7183 141.238 21.3361 141.479 20.9982C141.723 20.6557 142.058 20.4547 142.484 20.3953C142.917 20.3345 143.315 20.4327 143.676 20.6897C144.037 20.9467 144.257 21.2885 144.337 21.7151C144.425 22.1403 144.347 22.5242 144.103 22.8667C143.863 23.2046 143.526 23.4039 143.092 23.4647C142.666 23.5241 142.272 23.4253 141.911 23.1683Z" fill="black"/>
<path d="M119.075 33.6617C118.127 33.236 117.366 32.7452 116.794 32.1893C116.226 31.6358 115.819 31.0577 115.573 30.4551C115.326 29.8525 115.206 29.2599 115.212 28.6772L117.58 28.7498C117.618 29.0407 117.696 29.3655 117.816 29.7241C117.938 30.0903 118.16 30.4549 118.483 30.8178C118.811 31.183 119.297 31.5098 119.94 31.7982C120.821 32.1937 121.646 32.3054 122.414 32.1334C123.18 31.9665 123.773 31.4165 124.192 30.4834L125.245 28.1352L125.098 28.0689C124.844 28.2601 124.515 28.4519 124.111 28.6443C123.712 28.839 123.233 28.948 122.675 28.9714C122.116 28.9948 121.472 28.8425 120.741 28.5145C119.797 28.0911 119.046 27.4893 118.487 26.7091C117.935 25.9259 117.633 25.0027 117.581 23.9393C117.537 22.873 117.799 21.7048 118.369 20.4348C118.939 19.1648 119.643 18.1727 120.48 17.4586C121.323 16.7468 122.23 16.3197 123.204 16.1773C124.179 16.0296 125.146 16.171 126.105 16.6013C126.847 16.934 127.39 17.327 127.734 17.7806C128.081 18.2289 128.308 18.6734 128.415 19.1139C128.528 19.5568 128.599 19.9341 128.627 20.2457L128.798 20.3225L129.667 18.3863L131.945 19.4087L126.467 31.6166C126.006 32.643 125.39 33.3783 124.617 33.8226C123.845 34.267 122.981 34.4646 122.025 34.4156C121.075 34.369 120.091 34.1177 119.075 33.6617ZM122.119 26.8164C122.788 27.1165 123.423 27.2145 124.024 27.1105C124.632 27.0037 125.187 26.7109 125.688 26.2321C126.197 25.7505 126.636 25.0976 127.006 24.2733C127.367 23.4699 127.565 22.7088 127.601 21.9901C127.637 21.2714 127.501 20.6374 127.194 20.0883C126.888 19.5339 126.396 19.1044 125.717 18.7997C125.017 18.4856 124.352 18.4054 123.723 18.5589C123.096 18.7072 122.525 19.0363 122.009 19.5461C121.499 20.0583 121.073 20.6954 120.731 21.4575C120.38 22.2402 120.191 22.9806 120.164 23.6785C120.138 24.3765 120.283 24.996 120.601 25.5372C120.924 26.0806 121.43 26.507 122.119 26.8164Z" fill="black"/>
<path d="M107.583 24.8044L110.503 12.0432L112.987 12.6115L110.068 25.3727L107.583 24.8044ZM112.208 10.3612C111.776 10.2623 111.438 10.0334 111.194 9.67443C110.956 9.31119 110.884 8.9274 110.976 8.52308C111.07 8.11321 111.302 7.79912 111.673 7.5808C112.05 7.35821 112.455 7.29633 112.887 7.39517C113.319 7.49401 113.653 7.72505 113.891 8.0883C114.135 8.44727 114.21 8.83169 114.117 9.24155C114.024 9.64588 113.789 9.95934 113.412 10.1819C113.041 10.4002 112.64 10.46 112.208 10.3612Z" fill="black"/>
<path d="M91.6132 23.0009L85.9626 23.0014L85.9611 5.54687L91.7906 5.54635C93.5008 5.5462 94.9696 5.8955 96.197 6.59426C97.4243 7.28733 98.3647 8.2844 99.0183 9.58548C99.6775 10.8809 100.007 12.4348 100.007 14.2473C100.007 16.0655 99.6752 17.628 99.0106 18.9349C98.3516 20.2418 97.3971 21.2476 96.1472 21.9522C94.8973 22.6512 93.3859 23.0008 91.6132 23.0009ZM88.5959 20.7L91.4681 20.6998C92.7977 20.6997 93.9027 20.4496 94.7834 19.9495C95.664 19.4437 96.323 18.7136 96.7605 17.759C97.1979 16.7987 97.4165 15.6282 97.4164 14.2476C97.4163 12.8782 97.1974 11.7163 96.7598 10.7618C96.3279 9.80731 95.683 9.08294 94.825 8.5887C93.967 8.09445 92.9016 7.84739 91.6289 7.8475L88.5948 7.84777L88.5959 20.7Z" fill="black"/>
<path d="M63.4267 29.6538C62.4586 30.0776 61.4864 30.2086 60.51 30.0467C59.5365 29.8774 58.6322 29.4266 57.7969 28.6944C56.9645 27.9548 56.2647 26.9369 55.6974 25.6408C55.1301 24.3448 54.8608 23.1416 54.8896 22.0312C54.9236 20.9185 55.2134 19.9512 55.7592 19.1293C56.305 18.3074 57.0593 17.6857 58.0223 17.2642C58.7666 16.9384 59.4198 16.8013 59.982 16.853C60.5472 16.8971 61.0264 17.0285 61.4198 17.247C61.8184 17.4633 62.1426 17.6656 62.3925 17.8539L62.533 17.7924L59.9323 11.8509L62.2668 10.8291L69.2658 26.8189L66.986 27.8168L66.1692 25.9508L65.974 26.0362C65.9451 26.3528 65.8697 26.7331 65.7478 27.1773C65.631 27.6191 65.3972 28.0626 65.0462 28.5077C64.6953 28.9528 64.1555 29.3349 63.4267 29.6538ZM63.0706 27.4374C63.742 27.1435 64.2319 26.7181 64.5402 26.1614C64.8515 25.5972 64.9879 24.9452 64.9493 24.2054C64.916 23.4633 64.7148 22.6707 64.3457 21.8275C63.9812 20.9946 63.5425 20.3183 63.0297 19.7985C62.5169 19.2787 61.9525 18.9459 61.3366 18.7999C60.7207 18.6539 60.0718 18.7302 59.39 19.0286C58.6873 19.3362 58.1815 19.7747 57.8725 20.3441C57.5635 20.9135 57.4272 21.5655 57.4634 22.3001C57.5049 23.0324 57.6987 23.7942 58.045 24.5853C58.3959 25.3869 58.8312 26.0554 59.3508 26.5908C59.8705 27.1263 60.4466 27.4788 61.0791 27.6485C61.7145 27.8108 62.3783 27.7404 63.0706 27.4374Z" fill="black"/>
<path d="M48.4494 39.3769C47.4501 40.1923 46.4152 40.681 45.3448 40.8431C44.2752 40.9972 43.2266 40.8445 42.199 40.385C41.1722 39.9175 40.2296 39.1576 39.3711 38.1055C38.5233 37.0665 37.9699 35.9928 37.7107 34.8843C37.456 33.7722 37.4972 32.7082 37.8343 31.6925C38.1759 30.6731 38.8177 29.7791 39.7598 29.0104C40.3321 28.5434 40.9641 28.1855 41.6556 27.9365C42.3471 27.6876 43.0717 27.5914 43.8291 27.648C44.5866 27.7046 45.3527 27.9559 46.1272 28.4019C46.8982 28.8435 47.659 29.5243 48.4098 30.4444L48.9809 31.1443L40.9181 37.7232L39.7112 36.244L45.8392 31.2439C45.4153 30.7244 44.9343 30.3506 44.3961 30.1224C43.8543 29.8898 43.2967 29.8131 42.7234 29.8923C42.1544 29.9678 41.6146 30.214 41.1039 30.6307C40.5492 31.0833 40.1763 31.6149 39.9852 32.2255C39.7949 32.8281 39.7653 33.4389 39.8964 34.0579C40.0283 34.6689 40.3008 35.2276 40.7139 35.7338L41.6568 36.8894C42.21 37.5674 42.7994 38.0471 43.4251 38.3286C44.0551 38.6065 44.6882 38.6949 45.3244 38.5938C45.957 38.4883 46.5616 38.2003 47.1383 37.7297C47.5125 37.4244 47.8106 37.0932 48.0326 36.7361C48.2509 36.3746 48.3844 35.9944 48.4329 35.5955C48.4814 35.1966 48.4357 34.7901 48.296 34.3762L50.4395 33.1881C50.7389 33.8605 50.8637 34.5617 50.8139 35.2916C50.765 36.0135 50.5433 36.726 50.149 37.4291C49.7555 38.1242 49.189 38.7735 48.4494 39.3769Z" fill="black"/>
<path d="M30.6676 38.1501L32.2579 39.4364L27.7611 44.996L26.1708 43.7097L30.6676 38.1501ZM24.9382 40.2464L26.5407 38.265L36.169 46.0527C36.5533 46.3636 36.8891 46.5402 37.1764 46.5826C37.4593 46.6214 37.7093 46.5788 37.9265 46.4548C38.1428 46.3229 38.3385 46.1487 38.5136 45.9322C38.6422 45.7732 38.7437 45.6251 38.8181 45.488C38.8925 45.3508 38.9499 45.2438 38.9902 45.1668L40.9164 46.1328C40.8677 46.2834 40.7796 46.4826 40.6523 46.7303C40.5294 46.9817 40.3415 47.2682 40.0886 47.5898C39.6758 48.1183 39.19 48.5292 38.6312 48.8226C38.0724 49.1159 37.4772 49.2374 36.8456 49.187C36.2141 49.1366 35.5913 48.863 34.9773 48.3664L24.9382 40.2464Z" fill="black"/>
<path d="M23.9624 51.7295L23.2723 53.9713C22.9654 53.9224 22.6451 53.9306 22.3115 53.9958C21.9806 54.0559 21.6589 54.2038 21.3464 54.4394C21.034 54.6751 20.7572 55.028 20.5161 55.4982C20.1868 56.1403 20.056 56.7501 20.1238 57.3276C20.1865 57.9025 20.4428 58.3054 20.8927 58.5362C21.282 58.7358 21.6694 58.7525 22.0548 58.5862C22.4402 58.4199 22.8734 58.0546 23.3544 57.4903L24.7281 55.8578C25.5255 54.913 26.3169 54.31 27.1023 54.0487C27.8876 53.7874 28.6923 53.8681 29.5164 54.2908C30.2141 54.6486 30.7322 55.1697 31.0708 55.8542C31.4069 56.5311 31.545 57.3075 31.4852 58.1836C31.428 59.0546 31.1582 59.9603 30.6759 60.9007C30.007 62.205 29.1831 63.1266 28.2043 63.6655C27.2205 64.2017 26.1649 64.2989 25.0376 63.957L25.828 61.5942C26.4693 61.7507 27.0455 61.6918 27.5565 61.4175C28.0625 61.1407 28.4905 60.661 28.8406 59.9785C29.2217 59.2353 29.3722 58.5622 29.292 57.9591C29.2067 57.3534 28.9391 56.9352 28.4892 56.7044C28.1252 56.5177 27.7493 56.4974 27.3615 56.6433C26.9764 56.7842 26.578 57.1003 26.1664 57.5916L24.7228 59.3416C23.9176 60.3015 23.111 60.9031 22.303 61.1464C21.4975 61.3846 20.6803 61.2911 19.8511 60.8658C19.1636 60.5132 18.6605 60.0125 18.3419 59.3638C18.0233 58.7151 17.8936 57.9781 17.9529 57.1528C18.0071 56.325 18.2585 55.4738 18.7071 54.5991C19.3528 53.3403 20.134 52.4894 21.0508 52.0465C21.9626 51.601 22.9331 51.4953 23.9624 51.7295Z" fill="black"/>
<path d="M19.3224 74.9057L11.831 73.298L12.3675 70.7981L25.167 73.545L24.6412 75.9949L22.4246 75.5192L22.396 75.6525C23.0161 76.0936 23.4842 76.688 23.8002 77.4357C24.1119 78.1767 24.1646 79.0278 23.9584 79.9888C23.7819 80.811 23.4452 81.5 22.9482 82.0558C22.4468 82.6049 21.799 82.9831 21.0049 83.1904C20.212 83.3921 19.2877 83.3797 18.2322 83.1532L10.0909 81.4059L10.6256 78.9144L18.467 80.5972C19.3392 80.7844 20.0854 80.6918 20.7058 80.3194C21.3262 79.9469 21.7192 79.3746 21.8849 78.6024C21.9851 78.1358 21.968 77.6469 21.8336 77.1357C21.7004 76.619 21.4305 76.1572 21.0239 75.7503C20.6185 75.3379 20.0513 75.0563 19.3224 74.9057Z" fill="black"/>
<path d="M23.0354 96.1898L9.94461 96.246L9.93404 93.783L12.0136 93.774L12.013 93.6377C11.3074 93.4021 10.7516 92.984 10.3457 92.3834C9.93395 91.7773 9.72646 91.0906 9.72317 90.3236C9.72248 90.1645 9.72736 89.977 9.7378 89.761C9.74821 89.5394 9.76167 89.366 9.77818 89.241L12.2157 89.2305C12.1877 89.3329 12.1572 89.5148 12.1242 89.7764C12.0856 90.0379 12.0668 90.2993 12.068 90.5607C12.0705 91.163 12.2007 91.6993 12.4584 92.1698C12.7104 92.6347 13.0614 93.0025 13.5114 93.2733C13.9558 93.5441 14.462 93.6783 15.0302 93.6758L23.0245 93.6415L23.0354 96.1898Z" fill="black"/>
<path d="M11.4622 117.336L9.24521 117.809L6.42272 104.599L8.63972 104.125L9.77763 109.451L24.6299 106.278L25.1784 108.845L10.3261 112.018L11.4622 117.336Z" fill="black"/>
<path d="M35.5266 133.207L24.4828 140.236L23.1603 138.158L24.9146 137.041L24.8414 136.926C24.1189 137.103 23.4258 137.046 22.7621 136.755C22.0905 136.461 21.5488 135.991 21.137 135.344C21.0516 135.21 20.9557 135.049 20.8494 134.86C20.74 134.667 20.6589 134.514 20.6062 134.399L22.6625 133.09C22.6934 133.192 22.7647 133.362 22.8763 133.601C22.9831 133.843 23.1066 134.074 23.247 134.294C23.5703 134.802 23.9665 135.187 24.4354 135.447C24.8965 135.706 25.3895 135.83 25.9146 135.819C26.435 135.811 26.9348 135.655 27.4141 135.35L34.1584 131.057L35.5266 133.207Z" fill="black"/>
<path d="M37.4511 144.518L32.017 149.92L30.2145 148.106L39.4989 138.877L41.2654 140.654L39.6575 142.253L39.7537 142.349C40.4616 142.07 41.2151 142.002 42.0142 142.145C42.8053 142.288 43.5473 142.708 44.2402 143.406C44.8331 144.002 45.2268 144.66 45.4215 145.38C45.6082 146.099 45.5718 146.849 45.3123 147.627C45.0488 148.402 44.5343 149.17 43.7686 149.931L37.8631 155.801L36.0666 153.994L41.7545 148.34C42.3872 147.711 42.7167 147.035 42.743 146.312C42.7692 145.589 42.504 144.947 41.9472 144.387C41.6108 144.048 41.1917 143.796 40.69 143.63C40.1842 143.46 39.65 143.434 39.0871 143.553C38.5203 143.668 37.9749 143.989 37.4511 144.518Z" fill="black"/>
<path d="M59.0258 154.156C60.0986 154.752 60.8981 155.518 61.4245 156.454C61.9509 157.39 62.1895 158.423 62.1402 159.552C62.091 160.682 61.738 161.838 61.0811 163.02C60.4215 164.207 59.6237 165.122 58.6877 165.766C57.7516 166.409 56.7472 166.754 55.6744 166.802C54.6015 166.849 53.5287 166.575 52.456 165.978C51.3832 165.382 50.5836 164.616 50.0572 163.68C49.5309 162.744 49.2937 161.709 49.3457 160.574C49.3976 159.44 49.7534 158.279 50.4131 157.092C51.0699 155.91 51.865 155 52.7982 154.361C53.7315 153.723 54.7346 153.38 55.8074 153.332C56.8802 153.285 57.953 153.56 59.0258 154.156ZM57.9793 156.021C57.284 155.635 56.6057 155.499 55.9446 155.612C55.2834 155.726 54.6739 156.027 54.1159 156.517C53.5529 157.004 53.0672 157.614 52.6587 158.349C52.253 159.08 51.9922 159.812 51.8762 160.547C51.7525 161.284 51.8157 161.966 52.0656 162.593C52.3155 163.219 52.7881 163.725 53.4835 164.112C54.1837 164.501 54.8683 164.638 55.5372 164.522C56.2011 164.403 56.8159 164.098 57.3816 163.606C57.9396 163.117 58.4215 162.507 58.8272 161.777C59.2356 161.042 59.5003 160.308 59.6212 159.576C59.7372 158.841 59.6689 158.163 59.4162 157.541C59.1585 156.917 58.6795 156.411 57.9793 156.021Z" fill="black"/>
<path d="M77.9355 179.499L75.0472 178.72L72.7107 169.872L72.5297 169.823L66.0614 176.297L63.1731 175.518L72.0476 166.93L73.8317 160.314L76.3661 160.997L74.582 167.613L77.9355 179.499Z" fill="black"/>
</svg>
